<?xml version="1.0" encoding="UTF-8" standalone="no"?>
<!-- Created with Inkscape (http://www.inkscape.org/) -->

<svg
   version="1.1"
   id="svg1"
   width="500"
   height="500"
   viewBox="0 0 500 500"
   sodipodi:docname="logo-nova.svg"
   inkscape:version="1.3 (0e150ed6c4, 2023-07-21)"
   xmlns:inkscape="http://www.inkscape.org/namespaces/inkscape"
   xmlns:sodipodi="http://sodipodi.sourceforge.net/DTD/sodipodi-0.dtd"
   xmlns="http://www.w3.org/2000/svg"
   xmlns:svg="http://www.w3.org/2000/svg">
  <defs
     id="defs1" />
  <sodipodi:namedview
     id="namedview1"
     pagecolor="#ffffff"
     bordercolor="#000000"
     borderopacity="0.25"
     inkscape:showpageshadow="2"
     inkscape:pageopacity="0.0"
     inkscape:pagecheckerboard="0"
     inkscape:deskcolor="#d1d1d1"
     inkscape:zoom="1.8582766"
     inkscape:cx="191.30629"
     inkscape:cy="47.086639"
     inkscape:window-width="1708"
     inkscape:window-height="871"
     inkscape:window-x="2391"
     inkscape:window-y="-9"
     inkscape:window-maximized="1"
     inkscape:current-layer="g1" />
  <g
     inkscape:groupmode="layer"
     inkscape:label="Image"
     id="g1">
    <g
       id="g58"
       transform="matrix(0.5,0,0,0.5,47.357954,5.0193719)">
      <path
         style="fill:#f17304"
         d="M 0,150 V 0 H 150 300 V 150 300 H 150 0 Z"
         id="path65" />
      <path
         style="fill:#d46503"
         d="M 0,150 V 0 H 150 300 V 150 300 H 150 0 Z m 163.90372,27.15 0.20915,-9.45 1.11967,-2.06737 1.11967,-2.06738 -2.02611,1.71015 c -1.11435,0.94058 -3.1061,2.20247 -4.4261,2.8042 l -2.4,1.09405 1.96883,0.0132 1.96883,0.0132 0.32737,0.85312 0.32737,0.85311 -0.58904,1.09689 c -0.32398,0.60328 -2.09634,2.04188 -3.93857,3.19688 l -3.34953,2.1 -0.002,4.5 -0.002,4.5 1.61847,-3.3 1.61847,-3.3 0.18764,2.1 c 0.1032,1.155 0.32239,2.7075 0.4871,3.45 l 0.29946,1.35 h 2.63586 2.63585 z M 113.4,168.6 c 0,-0.33 -0.28593,-0.6 -0.63541,-0.6 h -0.63541 l 0.37082,-0.6 0.37082,-0.6 h 1.55749 1.55749 l 2.34594,-2.46609 2.34593,-2.46608 -0.34466,-0.89817 -0.34466,-0.89816 0.65001,-2.41395 c 0.3575,-1.32767 0.89058,-3.89209 1.18462,-5.69871 0.75891,-4.66298 2.68025,-6.71274 3.10152,-3.30884 l 0.2042,1.65 0.33174,-1.95 0.33173,-1.95 H 122.89608 120 v 2.60402 2.60402 l -1.18459,4.63173 -1.1846,4.63172 -1.25626,1.76425 -1.25626,1.76426 h -1.03915 c -0.57153,0 -1.42348,-0.3375 -1.89322,-0.75 -0.46974,-0.4125 -0.3469,-0.1425 0.27299,0.6 l 1.12708,1.35 h -0.55949 c -1.17582,0 -3.26645,-1.95448 -4.69128,-4.38578 l -1.48295,-2.53046 -0.91727,-3.89188 -0.91726,-3.89188 -0.005,-7.5 -0.005,-7.5 0.55234,-3.3718 c 0.91835,-5.60613 1.76442,-8.0793 3.79887,-11.10462 l 1.94184,-2.88761 2.27805,-0.86008 2.27806,-0.86008 1.81911,1.34493 c 2.69097,1.98952 2.6444,1.1949 -0.0862,-1.47149 L 115.2,114.35646 v 0.76774 0.76774 l -2.25,-0.18729 -2.25,-0.18729 0.18641,1.33362 0.18641,1.33361 -1.4693,1.95771 c -2.27958,3.03734 -4.3852,7.63354 -5.15739,11.2577 l -0.70312,3.3 -0.003,7.52466 -0.003,7.52465 -1.16896,0.0881 -1.16897,0.0881 -0.0183,-0.71271 -0.0182,-0.71271 -0.64178,1.10399 -0.64179,1.10399 0.41575,2.77244 c 0.49771,3.31896 2.58918,9.11958 3.28815,9.11958 0.2737,0 1.05375,0.94255 1.73345,2.09456 l 1.23582,2.09456 1.97345,1.2032 1.97344,1.20319 1.35,0.002 1.35,0.002 z m 77.30325,-0.22087 c 0.77178,-0.42809 2.56527,-2.33192 3.98552,-4.23073 l 2.58228,-3.45239 0.90559,-3.398 c 0.49808,-1.86891 1.06034,-4.27551 1.24948,-5.34801 L 199.77,150 l -0.585,-0.075 c -0.32175,-0.0413 -1.14196,-0.10875 -1.8227,-0.15 l -1.23769,-0.075 -0.2081,-8.4 -0.2081,-8.4 -1.02112,-3.3 c -1.14876,-3.7125 -3.25297,-7.90127 -5.18535,-10.32229 l -1.29487,-1.62229 0.69126,-0.83292 c 1.00995,-1.21691 0.33869,-1.5401 -2.42801,-1.16901 l -2.45402,0.32915 0.51627,-0.84132 0.51628,-0.84132 -1.4325,0.94534 c -0.78787,0.51994 -2.11829,1.83464 -2.95649,2.92154 l -1.52399,1.9762 2.36316,-1.60368 2.36316,-1.60369 1.5189,0.35329 1.51891,0.35328 2.20323,2.30548 2.20323,2.30549 1.23891,4.01114 1.23892,4.01114 0.67205,6.88266 0.67206,6.88266 -0.66855,5.66868 -0.66854,5.66868 -1.1942,3.19178 -1.1942,3.19179 -2.17813,2.06911 -2.17812,2.06911 -0.27333,-0.75 c -0.15033,-0.4125 -0.60877,-0.75 -1.01874,-0.75 -0.40998,0 -1.3515,-0.64515 -2.09227,-1.43367 l -1.34686,-1.43366 -1.14099,-3.66599 c -0.62754,-2.01629 -1.3208,-5.42114 -1.54058,-7.56633 L 179.23429,146.4 h -2.89832 -2.89831 l 0.35124,0.91531 0.35124,0.91532 0.76636,-0.63603 0.76636,-0.63602 0.96357,0.96357 0.96357,0.96356 0.0346,1.90715 c 0.019,1.04893 0.50562,3.71257 1.08132,5.9192 l 1.04674,4.01207 -0.48133,-0.29748 c -0.82184,-0.50792 -0.5282,0.58911 0.69439,2.59422 l 1.17122,1.92087 1.79674,0.92913 c 0.98821,0.51102 2.36834,0.92913 3.06697,0.92913 h 1.27023 L 186.9,168 l -0.38087,1.2 1.39044,-0.0213 c 0.76474,-0.0117 2.02189,-0.37152 2.79368,-0.79961 z m -36.609,-15.42459 -0.64333,-1.84546 0.57048,-0.57048 c 0.31377,-0.31377 1.94541,-0.73333 3.62586,-0.93235 l 3.05536,-0.36187 -0.33098,-0.86252 -0.33098,-0.86252 -0.64033,0.64033 L 158.76,148.8 h -1.88701 -1.887 l -1.04432,-1.15395 -1.04431,-1.15395 -2.03706,0.33057 -2.03706,0.33057 -1.51162,-0.99045 L 145.8,145.17234 V 144.28617 143.4 l 1.05,-0.038 1.05,-0.038 -1.44557,-0.57799 c -0.79506,-0.31789 -1.79897,-1.04328 -2.23092,-1.61197 l -0.78535,-1.03398 -0.0191,0.9165 c -0.0105,0.50407 0.40935,1.52817 0.933,2.27577 l 0.95207,1.35928 -0.71099,0.85669 c -0.39105,0.47118 -1.62011,1.18544 -2.73125,1.58723 l -2.02025,0.73053 -0.31396,0.81816 -0.31395,0.81817 0.68764,-0.42499 0.68764,-0.42499 -0.36686,1.44383 -0.36686,1.44382 2.08042,-2.25 c 1.14423,-1.2375 2.35215,-2.25 2.68427,-2.25 1.08927,0 5.03338,2.82452 7.45177,5.33647 2.83983,2.94971 2.83475,2.94815 2.02248,0.61807 z m 8.49656,-11.26192 c 0.005,-0.44406 0.56758,-1.59156 1.25005,-2.55 L 165.08171,137.4 h 1.75915 1.75914 v 0.9 0.9 h 5.31714 5.31715 l 0.39133,-3.81964 c 0.21523,-2.10081 0.81851,-5.27331 1.34062,-7.05 l 0.94929,-3.23036 1.47277,-1.95 1.47277,-1.95 1.31946,-0.0183 1.31947,-0.0182 -1.09346,-0.63589 -1.09346,-0.63589 -1.43474,0.36009 -1.43474,0.3601 -1.56315,2.66732 -1.56315,2.66731 -1.13289,5.52953 -1.13288,5.52953 -0.94746,0.9472 -0.94747,0.94719 -0.56911,-0.9 -0.56911,-0.9 -0.009,0.75 -0.009,0.75 h -2.15382 -2.15383 l -0.99617,-1.22961 -0.99618,-1.22961 -2.17257,-0.48974 -2.17257,-0.48974 -0.72014,3.36935 c -0.39607,1.85314 -0.8536,3.90935 -1.01673,4.56935 l -0.2966,1.2 0.63012,-0.9 c 0.34656,-0.495 0.63425,-1.26332 0.6393,-1.70738 z m -24.97275,-4.14262 0.84888,-1.65 -0.41094,-2.4 -0.41095,-2.4 -0.39306,1.87768 c -0.21618,1.03272 -0.81132,2.29594 -1.32253,2.80714 C 135.41826,136.29603 135,137.13857 135,137.65714 V 138.6 h -4.8 -4.8 l -0.0817,-1.35 -0.0817,-1.35 -0.26002,1.35 c -0.29828,1.54865 -0.92672,1.71499 -1.92677,0.50999 l -0.69715,-0.84001 -0.60496,-3.75646 c -0.33273,-2.06606 -1.12755,-5.24334 -1.76628,-7.06064 l -1.16132,-3.30417 -1.31463,-1.39935 L 116.19082,120 h -1.02894 c -0.56592,0 -1.66635,0.55327 -2.44541,1.22949 l -1.41647,1.2295 1.27052,-0.72419 1.27052,-0.72418 0.95237,0.36545 0.95237,0.36546 1.22967,2.41035 c 1.52684,2.99285 3.00391,9.1144 3.01568,12.49812 L 120,139.2 h 8.38459 8.38459 z"
         id="path64" />
      <path
         style="fill:#a34d02"
         d="M 0,150 V 0 H 150 300 V 150 300 H 150 0 Z m 139.84922,34.31459 c 0.0271,-1.21802 0.63457,-4.37459 1.35,-7.01459 l 1.30078,-4.8 2.05853,-0.19611 2.05853,-0.19611 -2.32456,-1.30393 -2.32457,-1.30392 -3.22364,-4.49997 c -1.773,-2.47498 -4.42078,-6.51931 -5.88396,-8.98741 L 130.2,151.52509 v -1.22904 c 0,-0.67597 0.42031,-1.82912 0.93402,-2.56255 L 132.06804,146.4 H 126.03402 120 l -0.0104,2.25 c -0.006,1.2375 -0.39851,4.0815 -0.87284,6.31999 l -0.86243,4.07 -1.33397,2.37347 -1.33397,2.37348 -1.13618,0.36061 -1.13619,0.36061 -1.24988,-1.10408 -1.24988,-1.10408 1.10536,1.8 1.10537,1.8 -2.21394,-2.06911 -2.21394,-2.06911 -1.17747,-3.14706 -1.17746,-3.14706 -0.66895,-5.28383 -0.66895,-5.28383 0.39353,-5.7 c 0.4963,-7.18849 1.66223,-12.98537 3.22974,-16.05794 l 1.21985,-2.39111 1.87235,-1.57548 1.87234,-1.57547 h 1.67305 1.67305 l 1.48448,1.16769 1.48447,1.16769 1.62576,3.62267 c 1.67517,3.73278 3.33835,10.41429 3.3567,13.48494 l 0.0104,1.743 -1.11873,-1.01244 -1.11873,-1.01243 -0.36441,-3.0769 c -0.20043,-1.69229 -0.92587,-4.76409 -1.6121,-6.82621 l -1.2477,-3.74932 -1.44051,-1.55435 L 116.4573,120 h -1.42406 -1.42406 l -1.21533,1.35 c -1.87552,2.08334 -2.39525,3.36573 -0.59806,1.47564 l 1.59206,-1.67436 1.10542,0.5916 c 1.7165,0.91864 2.41742,2.00968 3.71613,5.78444 l 1.20304,3.49671 0.37994,4.08798 0.37994,4.08799 h 8.51753 8.51753 l 0.63467,-1.39295 0.63468,-1.39296 -0.3164,-2.80704 c -0.35721,-3.1692 -1.02661,-3.74584 -1.12602,-0.96999 l -0.0657,1.83433 -0.6843,0.6843 L 135.6,135.84 v -3.41053 -3.41054 l 1.66946,-1.86845 1.66947,-1.86846 2.68207,-0.30231 2.68207,-0.3023 1.1865,1.31107 1.1865,1.31106 0.31197,3.05274 0.31196,3.05274 0.75,0.24749 0.75,0.24749 v -2.93 -2.93 l 0.72,-0.72 0.72,-0.72 h 1.60653 1.60654 l 0.76345,0.91991 0.76346,0.9199 0.29346,3.1301 0.29347,3.13009 0.66654,0.44081 c 1.12209,0.74208 1.40257,0.52907 1.77853,-1.35071 l 0.36198,-1.8099 1.64519,-0.6255 1.64518,-0.6255 0.76784,1.05008 c 1.20423,1.64688 0.69128,5.53614 -1.88873,14.32072 -0.19384,0.66 0.64163,-0.89916 1.8566,-3.46481 l 2.20903,-4.6648 1.48882,-0.37367 1.48882,-0.37367 0.72279,0.98847 0.72279,0.98848 h 5.20269 5.20268 l 0.20963,-0.75 c 0.1153,-0.4125 0.47416,-2.80347 0.79748,-5.31328 l 0.58786,-4.56327 1.55049,-3.38673 1.55049,-3.38672 h 1.33595 1.33595 l 1.22683,1.05 1.22682,1.05 -0.94837,-1.5 -0.94837,-1.5 -1.61287,-0.57696 -1.61287,-0.57696 -1.01834,0.60734 -1.01834,0.60734 -1.6862,3.34006 -1.68619,3.34006 -0.80788,4.6522 -0.80787,4.6522 -0.95593,0.95593 -0.95593,0.95593 v -2.43259 c 0,-5.82639 3.41235,-15.24593 6.36418,-17.56783 L 183.16183,117.6 h 1.33036 1.33035 l 1.99775,1.35 1.99775,1.35 1.45268,2.91728 1.45268,2.91729 0.81736,4.58271 0.81737,4.58272 0.0209,7.92047 0.0209,7.92046 -0.67392,3.17954 C 192.68392,159.23728 189.39011,165 187.62194,165 h -0.56887 l 0.82346,-0.99823 0.82347,-0.99823 -1.35,0.71934 -1.35,0.71934 -1.12497,-0.60207 -1.12498,-0.60206 -1.20422,-2.56905 c -1.32769,-2.83243 -2.45434,-7.80025 -2.64974,-11.68371 l -0.12653,-2.51467 -6.4292,-0.18533 -6.4292,-0.18533 0.27983,0.45 c 0.15391,0.2475 0.66042,0.45 1.12559,0.45 h 0.84576 l -0.3833,1.05 c -0.21082,0.5775 -0.88148,1.69917 -1.49036,2.4926 l -1.10706,1.4426 0.90919,1.00464 0.90919,1.00465 v 1.23955 c 0,0.68176 -0.54124,2.9919 -1.20276,5.13365 l -1.20277,3.8941 -2.09887,1.60089 c -1.15438,0.88048 -2.93415,1.89207 -3.95506,2.24795 l -1.85619,0.64708 0.80783,0.51195 c 0.4443,0.28158 1.41532,0.5161 2.15782,0.52115 L 162,169.8 v 0.51908 c 0,1.09882 -2.60224,3.74886 -5.14388,5.23836 l -2.65612,1.55659 0.0279,4.59298 0.0279,4.59299 1.62207,-3 1.62206,-3 0.18136,3.15 0.18135,3.15 h 3.26865 3.26864 v -8.55616 -8.55616 l 2.0408,-5.86068 2.04079,-5.86068 0.40225,-4.33316 c 0.22124,-2.38324 0.53607,-4.80566 0.69964,-5.38316 L 169.8808,147 h 2.0228 2.0228 l 0.38554,2.85 c 0.61075,4.51494 2.57518,11.36727 4.14931,14.47366 l 1.44546,2.85249 2.43148,2.1967 2.43149,2.19669 1.5372,0.38582 1.5372,0.38581 1.80553,-0.36111 c 0.99304,-0.1986 2.69609,-1.04037 3.78456,-1.87058 1.08847,-0.83021 2.22953,-1.50948 2.53569,-1.50948 0.30616,0 1.5559,-0.82366 2.77721,-1.83036 l 2.22054,-1.83037 1.74573,-3.71963 c 1.52094,-3.24067 2.12175,-5.28335 3.4324,-11.66964 l 0.27705,-1.35 h 1.96857 1.96857 l 0.72,-0.72 0.72,-0.72 v -3.66532 -3.66532 l -0.75,-0.9811 -0.75,-0.9811 -2.09583,-0.18358 -2.09584,-0.18358 -0.40328,-2.84197 c -0.59827,-4.2161 -2.21536,-8.79383 -4.24742,-12.02378 l -1.80293,-2.86574 -3.37735,-2.08228 c -1.85754,-1.14524 -4.2985,-2.51002 -5.42434,-3.03283 l -2.047,-0.95056 -2.0388,0.38249 -2.03881,0.38248 -2.25135,2.03396 -2.25136,2.03397 -1.57849,2.9002 -1.57848,2.9002 -1.18559,4.48193 c -0.65208,2.46506 -1.35908,5.76443 -1.57112,7.33193 l -0.38554,2.85 h -1.82662 -1.82662 l -1.78265,-1.5 -1.78265,-1.5 H 165.25389 163.8 v -1.75714 -1.75715 l -0.94196,-0.94195 c -1.17238,-1.17238 -3.42683,-1.76608 -5.32699,-1.40285 l -1.44677,0.27657 -0.35083,-1.39783 -0.35083,-1.39782 -1.89074,-0.97774 -1.89074,-0.97774 -2.50062,0.28186 -2.50063,0.28185 -1.11462,-0.81503 -1.11463,-0.81503 -2.13532,0.002 -2.13532,0.002 -1.91171,1.16565 c -1.05144,0.6411 -2.22767,1.75604 -2.61386,2.47763 l -0.70215,1.31198 0.0693,4.74546 0.0693,4.74546 -4.65461,-0.17533 -4.65461,-0.17534 -0.44318,-3.6 c -0.24375,-1.98 -0.97639,-5.355 -1.6281,-7.5 l -1.18493,-3.9 -1.97275,-3.27989 -1.97275,-3.27988 -2.03873,-1.37012 c -1.1213,-0.75356 -2.3363,-1.36152 -2.7,-1.35103 l -0.66127,0.0191 0.97322,0.74092 0.97321,0.74092 H 111.6 108.15357 l 0.97321,-0.74092 0.97322,-0.74092 -0.64713,-0.0191 c -0.35593,-0.0105 -1.84093,0.74355 -3.3,1.67566 -1.45908,0.93211 -3.4123,2.16443 -4.34049,2.73848 l -1.68762,1.04374 -1.787315,2.81152 -1.787319,2.81152 -1.1326,3.9 c -0.62293,2.145 -1.298943,4.9125 -1.502251,6.15 l -0.369651,2.25 h -1.999345 -1.999345 l -0.813467,0.98017 -0.813467,0.98017 v 3.43966 3.43966 l 0.813467,0.98017 0.813467,0.98017 h 1.999345 1.999345 l 0.376253,2.25 c 1.562266,9.34238 5.286807,16.16943 9.878123,18.10651 0.825,0.34807 2.2623,1.24274 3.194,1.98817 l 1.694,1.35532 h 2.8527 2.85271 l 2.21269,-1.6877 2.21269,-1.6877 1.8002,-3.1123 c 2.1616,-3.7371 4.03482,-9.59755 4.63869,-14.5123 l 0.44232,-3.6 2.30293,-0.18937 2.30293,-0.18938 -0.40992,1.29154 -0.40992,1.29154 0.38166,2.03443 0.38167,2.03442 4.6899,7.0981 4.68991,7.09809 0.41792,2.78688 0.41792,2.78688 -0.63811,4.97843 c -0.35095,2.73814 -0.7878,5.88252 -0.97076,6.9875 l -0.33267,2.00906 0.63827,-0.39447 0.63827,-0.39447 z M 108.9,170.90145 c -0.66,-0.36414 -1.9425,-1.35144 -2.85,-2.19401 -0.9075,-0.84257 -1.65,-1.33117 -1.65,-1.08577 0,0.24539 -0.76099,-0.003 -1.6911,-0.55278 l -1.69109,-0.99896 -1.869294,-2.78496 L 97.279224,160.5 95.889612,156 94.5,151.5 v -8.1 -8.1 l 0.780544,-3.39222 0.780544,-3.39223 1.468723,-1.70777 1.468723,-1.70778 7.33e-4,0.75 7.33e-4,0.75 1.17511,-1.17511 c 0.6463,-0.6463 1.72888,-2.2606 2.40572,-3.58732 l 1.23063,-2.41223 -1.65573,0.62023 -1.65573,0.62022 1.25595,-1.27218 c 0.69078,-0.6997 1.63578,-1.33499 2.1,-1.41175 0.46423,-0.0768 1.4338,-0.46409 2.15461,-0.86072 0.7208,-0.39663 2.1383,-0.72114 3.15,-0.72114 H 111 v 0.89861 c 0,0.49424 -0.97163,2.25105 -2.15917,3.90402 -1.18755,1.65298 -2.66495,4.3365 -3.28312,5.96339 l -1.12394,2.95797 -0.68582,5.588 -0.68581,5.58801 0.33219,4.47596 0.33218,4.47596 -0.55406,-0.87596 -0.55407,-0.87596 -0.0283,0.9 -0.0283,0.9 -0.88092,-1.16468 -0.88092,-1.16468 -0.009,1.16468 -0.009,1.16468 -0.61307,-0.9 -0.61307,-0.9 0.381489,2.4 c 1.183231,7.44388 2.381601,10.66089 5.066151,13.6001 0.98828,1.08203 1.79688,2.17023 1.79688,2.41821 0,0.24798 0.79659,0.86281 1.7702,1.36628 l 1.77021,0.91541 2.27979,-0.0191 2.2798,-0.0191 -1.06915,-0.81107 -1.06915,-0.81107 1.66915,-0.41048 c 3.55241,-0.87363 6.11474,-3.84796 6.44237,-7.47826 0.12059,-1.3361 0.9582,-6.10614 1.87908,-10.70096 l 0.27056,-1.35 h 0.95771 0.9577 l -0.42877,3.45 c -0.23583,1.8975 -1.08567,5.53296 -1.88854,8.0788 l -1.45977,4.6288 -1.9559,2.56435 c -1.07574,1.41039 -2.86194,3.17493 -3.96932,3.9212 l -2.01343,1.35685 -1.56127,-0.0182 c -0.8587,-0.01 -2.10127,-0.31617 -2.76127,-0.6803 z m 76.00778,-0.3105 -1.99223,-0.98173 -1.38924,-1.85461 C 178.35979,163.52738 175.2,154.46173 175.2,149.60402 V 147.6 h 0.56459 c 0.92671,0 1.35864,1.12553 2.1585,5.62456 0.41806,2.35149 0.96727,4.79223 1.22047,5.42387 l 0.46037,1.14842 -0.73277,-0.45287 -0.73276,-0.45287 0.95944,2.29626 c 0.52769,1.26294 1.53788,2.91198 2.24486,3.66453 l 1.28544,1.36828 2.27514,0.68165 2.27515,0.68165 -1.03922,0.78918 -1.03921,0.78918 2.62059,0.0191 2.62059,0.0191 2.39349,-2.55 c 1.31643,-1.4025 2.76144,-2.96984 3.21114,-3.48298 1.10793,-1.26423 2.34976,-4.41745 3.24027,-8.22761 l 0.73869,-3.1606 -0.3871,-1.54235 -0.38711,-1.54236 -0.87528,0.72642 -0.87528,0.72641 -0.009,-0.82346 -0.009,-0.82347 -0.58162,0.9 -0.58162,0.9 -0.009,-7.56811 -0.009,-7.5681 -0.60459,-3.188 c -0.73715,-3.88697 -2.9835,-8.92234 -5.29864,-11.87733 l -1.72319,-2.1985 0.26283,-0.75 0.26283,-0.75 h 1.78944 c 0.9842,0 2.3792,0.32451 3.1,0.72114 0.72081,0.39663 1.67174,0.78122 2.11319,0.85464 1.00571,0.16726 3.20396,2.11763 2.81977,2.50182 -0.15672,0.15672 -0.97373,-0.16636 -1.81558,-0.71796 l -1.53062,-1.0029 1.6619,3.15141 c 0.91404,1.73328 2.0669,3.47915 2.5619,3.8797 l 0.9,0.72829 0.1875,-0.52057 0.1875,-0.52057 1.17281,1.17281 1.17281,1.17281 0.91036,3.43969 0.91036,3.43969 0.32693,5.7 0.32692,5.7 -0.88565,4.8 c -0.48711,2.64 -1.49245,6.40468 -2.23409,8.36596 l -1.34844,3.56597 -2.16351,2.31649 -2.1635,2.31649 -1.0371,0.15083 c -0.5704,0.083 -1.6504,0.72537 -2.4,1.42758 -2.75215,2.57817 -5.63111,3.08708 -8.75512,1.54763 z m -30.39861,-17.53669 -0.39631,-2.34574 1.09357,-0.31043 c 0.60146,-0.17074 2.25279,-0.49087 3.66962,-0.7114 l 2.57604,-0.40097 -0.68905,-0.83025 -0.68905,-0.83025 -1.09755,0.58739 c -0.60365,0.32306 -1.66757,0.58739 -2.36427,0.58739 h -1.26672 l -1.46126,-1.46126 -1.46126,-1.46126 -0.34687,0.56126 L 151.72918,147 H 149.96459 148.2 l -1.22188,-1.22188 -1.22189,-1.22189 0.3581,-0.57941 0.3581,-0.57942 2.51378,0.38356 c 1.38259,0.21096 2.9593,0.6116 3.50381,0.89031 l 0.99003,0.50675 0.35997,-0.93808 c 0.19799,-0.51595 0.35998,-1.15757 0.35998,-1.42583 v -0.48774 l -2.16566,0.48844 -2.16566,0.48843 -2.05521,-0.33351 -2.05521,-0.33351 -1.17913,-1.49903 -1.17913,-1.49902 v 1.44741 1.44741 l 0.91668,1.30875 0.91668,1.30874 -1.57585,1.03254 c -0.86672,0.56789 -2.83173,1.37081 -4.36668,1.78426 l -2.79083,0.75173 1.38541,0.0405 1.38541,0.0405 -0.36657,0.59313 -0.36658,0.59312 0.93117,-0.35732 0.93116,-0.35732 v 0.5442 c 0,0.2993 -0.3375,0.92853 -0.75,1.39827 -0.4125,0.46974 -0.0902,0.32124 0.71616,-0.33 0.80638,-0.65124 2.06198,-1.85499 2.79022,-2.67498 l 1.32407,-1.4909 3.43242,2.364 c 1.88783,1.3002 4.14223,3.25359 5.00977,4.34088 1.99108,2.4954 2.06744,2.47765 1.58653,-0.36882 z"
         id="path63" />
      <path
         style="fill:#823d02"
         d="M 0,150 V 0 H 150 300 V 150 300 H 150 0 Z m 139.84329,34.91459 c 0.0238,-0.88802 0.63548,-4.04459 1.35926,-7.01459 l 1.31597,-5.4 2.03733,-0.19522 2.03734,-0.19522 -2.50766,-1.49538 -2.50765,-1.49539 -5.38894,-8.13368 -5.38894,-8.13368 -0.0951,-1.27571 c -0.19685,-2.64166 0.15318,-3.44175 3.11083,-7.11059 L 136.851,140.7 l -7.94524,-0.16825 c -4.36989,-0.0925 -8.31348,-0.0269 -8.76355,0.14576 l -0.8183,0.31401 0.37344,0.60424 0.37344,0.60424 7.61459,0.1225 7.61459,0.1225 -7.8,0.3275 -7.8,0.3275 0.15,0.45 c 0.0825,0.2475 0.15,0.72 0.15,1.05 v 0.6 h 6.42 6.42 l -0.63771,0.63771 -0.63771,0.63771 -6.93329,-0.18771 -6.93328,-0.18771 0.61898,0.74339 0.61898,0.7434 0.59991,-0.37077 0.5999,-0.37076 -0.43918,3.82737 c -0.24155,2.10505 -0.95343,5.50026 -1.58197,7.5449 l -1.14279,3.71752 -1.55004,1.21927 -1.55005,1.21926 -1.05358,-0.56386 -1.05359,-0.56386 -0.76305,-1.84217 c -0.41968,-1.01319 -0.88055,-1.72467 -1.02415,-1.58107 -0.1436,0.1436 0.33347,1.43476 1.06017,2.86924 l 1.32126,2.60814 -1.34426,-1.2 c -0.73934,-0.66 -1.96497,-2.424 -2.72363,-3.92 l -1.37938,-2.71999 -0.72705,-3.69552 -0.72705,-3.69552 0.28631,-9.78448 0.2863,-9.78449 1.22778,-3.76838 1.22778,-3.76837 1.52067,-1.9937 1.52067,-1.99371 1.87954,-0.77853 1.87955,-0.77853 2.09171,0.99746 2.09171,0.99747 1.7386,3.74315 1.7386,3.74314 1.02146,5.25521 1.02145,5.25522 -0.44384,0.44384 -0.44384,0.44384 -0.76858,-1.05108 -0.76857,-1.05109 -0.38615,-3.28558 c -0.45837,-3.89994 -2.34551,-9.19796 -4.04662,-11.36056 L 116.9129,120 h -1.65186 -1.65186 l -1.22961,1.35 c -1.25909,1.38236 -2.57957,3.63436 -2.57957,4.39929 0,0.23549 0.61678,-0.48926 1.37062,-1.61056 l 1.37061,-2.03873 1.26484,-0.18327 1.26483,-0.18327 1.19753,1.68327 c 1.55554,2.18649 3.01422,7.16408 3.50595,11.96363 l 0.39133,3.81964 h 7.66807 c 4.21744,0 8.04124,0.1432 8.49733,0.31822 l 0.82926,0.31821 1.02463,-2.14866 1.02463,-2.14867 -0.60482,-1.13011 C 138.27217,133.78744 138,132.72114 138,132.03944 V 130.8 h -0.66419 -0.6642 l 0.2964,0.77239 0.29639,0.77239 -0.78347,1.77761 -0.78347,1.77761 -0.0487,-3.20738 -0.0487,-3.20738 1.2101,-1.69942 1.21009,-1.69942 2.03845,-0.67275 2.03845,-0.67275 2.15146,0.89893 2.15145,0.89894 0.05,0.93061 c 0.17959,3.34264 0.095,5.01063 -0.28541,5.62611 L 145.72918,133.8 h 1.55424 1.55424 l 0.32756,0.85361 c 0.18016,0.46948 0.74988,1.01566 1.26604,1.21373 l 0.93847,0.36013 -0.71989,-0.86741 -0.71989,-0.86742 1.38503,-0.26461 1.38502,-0.26461 -1.95,-0.0817 -1.95,-0.0817 v -2.97889 -2.97889 l 1.25588,-0.67213 1.25589,-0.67213 1.36816,0.34339 1.36816,0.34339 0.66751,1.65763 0.66751,1.65763 -0.1985,1.70708 -0.1985,1.70707 -0.84305,0.53374 -0.84306,0.53373 1.31459,0.009 c 0.72302,0.005 1.48418,0.28359 1.69146,0.61898 l 0.37687,0.60978 0.55854,-0.34519 0.55854,-0.3452 v 1.83541 1.83541 l -1.22396,1.22396 c -1.70667,1.70667 -3.75598,2.37604 -7.27437,2.37604 h -3.02022 l -1.77813,-1.9035 -1.77814,-1.9035 0.42041,1.7535 c 0.23123,0.96443 0.68016,2.2589 0.99764,2.8766 l 0.57724,1.1231 -1.11024,1.10409 -1.11023,1.10408 -3.3,0.88333 -3.3,0.88333 1.38541,0.0395 1.38541,0.0395 -0.41055,0.66428 -0.41055,0.66428 1.39572,-0.44298 1.39571,-0.44298 -1.0607,1.61882 -1.06069,1.61882 1.56171,-1.02327 c 0.85894,-0.5628 2.1766,-1.80896 2.92814,-2.76924 l 1.36642,-1.74598 3.68173,2.45857 3.68173,2.45856 1.91003,2.52056 c 1.05051,1.38631 1.75496,2.06723 1.56543,1.51317 -0.18952,-0.55407 -0.51843,-1.93406 -0.73091,-3.06665 l -0.38632,-2.05926 1.40114,-0.37516 c 0.77063,-0.20633 2.88614,-0.39596 4.70114,-0.42138 l 3.3,-0.0462 -1.2886,-0.51993 c -0.70874,-0.28595 -1.47451,-0.82071 -1.70172,-1.18835 l -0.41311,-0.66843 0.8548,-1.32362 c 0.47014,-0.72798 1.34916,-2.62986 1.95339,-4.2264 l 1.09859,-2.90279 1.31378,-0.86082 1.31378,-0.86082 0.98455,0.3778 0.98454,0.37781 v 1.29427 c 0,0.71186 -0.51672,2.70797 -1.14827,4.43581 L 166.30346,147 h 1.14827 1.14827 v 0.81908 c 0,0.4505 -0.5523,1.52123 -1.22734,2.37939 l -1.22733,1.56031 1.00884,1.53969 1.00884,1.53969 -0.98978,4.0109 -0.98979,4.0109 -1.89203,1.95207 -1.89202,1.95208 -2.59745,1.06794 c -1.42859,0.58737 -2.59845,1.27045 -2.59969,1.51795 l -0.002,0.45 h 2.14173 2.14173 l -0.19173,1.33104 -0.19173,1.33104 -3.3,2.29812 -3.3,2.29813 -0.3,4.77203 -0.3,4.77202 0.37611,-0.001 c 0.20687,-6.5e-4 1.01687,-1.41869 1.8,-3.15119 l 1.42389,-3.15 0.18081,3.47902 0.18081,3.47903 3.27963,-0.17903 3.27964,-0.17902 0.2142,-9.6 0.21419,-9.6 1.58527,-3.76247 1.58528,-3.76248 0.63667,-4.63752 c 0.35016,-2.55064 0.76593,-5.531 0.92393,-6.62302 l 0.28726,-1.98549 1.91616,0.18549 1.91615,0.18549 0.49148,2.7 c 0.27032,1.485 0.89708,4.45217 1.39281,6.59372 l 0.90132,3.89372 2.174,4.13713 2.174,4.13713 2.37322,1.71915 2.37322,1.71915 h 2.48021 2.48021 l 3.27976,-2.04301 c 1.80387,-1.12365 4.17329,-2.78423 5.26536,-3.69018 l 1.9856,-1.64718 1.41149,-2.78544 c 1.45551,-2.87232 2.93658,-7.6442 3.59544,-11.58419 l 0.37626,-2.25 h 1.99934 1.99935 l 0.77346,-0.93197 L 212,146.33606 V 142.8 139.26394 l -0.77347,-0.93197 -0.77346,-0.93197 h -1.99935 -1.99934 l -0.36966,-2.25 c -0.2033,-1.2375 -0.87932,-4.005 -1.50225,-6.15 l -1.1326,-3.9 -1.75359,-2.75834 -1.7536,-2.75835 -1.72391,-1.14165 c -3.38296,-2.24036 -4.15178,-2.68722 -6.7302,-3.91185 l -2.61143,-1.24031 -2.07437,0.38915 -2.07437,0.38916 -2.41081,2.17802 -2.41081,2.17802 -1.38506,2.73808 c -1.84553,3.64833 -3.67039,9.744 -4.18761,13.98807 l -0.42046,3.45 h -1.95224 -1.95223 l -1.37843,-1.46727 -1.37843,-1.46727 -1.57616,-0.18273 L 164.1,135.3 l -0.18743,-1.9422 -0.18744,-1.94219 -1.29607,-0.90781 -1.29607,-0.9078 h -2.52606 -2.52606 l -0.38594,-1.21598 c -0.21227,-0.6688 -1.04486,-1.64773 -1.85019,-2.1754 l -1.46426,-0.95942 -2.90566,0.2792 -2.90566,0.27919 -1.09926,-0.80379 -1.09926,-0.8038 -2.13532,0.002 -2.13532,0.002 -1.98611,1.21089 -1.9861,1.2109 -0.82277,1.96915 -0.82276,1.96915 0.10887,3.86771 0.10887,3.86771 -4.318,0.17564 -4.318,0.17564 -0.36432,-2.27564 c -0.20038,-1.2516 -0.7553,-4.13356 -1.23316,-6.40436 l -0.86883,-4.12872 -1.90142,-3.86232 -1.90141,-3.86233 -2.39507,-2.05008 -2.39506,-2.05009 -1.9502,-0.36586 -1.9502,-0.36586 -1.40217,0.42663 c -0.77119,0.23465 -2.21216,1.03144 -3.20216,1.77066 -0.99,0.73921 -2.39788,1.53302 -3.12863,1.76401 l -1.32862,0.41998 -2.331253,2.64844 -2.331248,2.64843 -1.280377,3.34583 c -0.704207,1.84021 -1.601433,5.08827 -1.993835,7.21792 L 93.392577,137.4 h -1.922821 -1.922822 l -0.747207,0.90033 -0.747206,0.90033 -0.303171,2.68973 -0.303171,2.68972 0.749702,1.80995 0.749703,1.80994 h 1.991798 c 2.416011,0 2.387465,-0.0429 3.488644,5.23842 l 0.886242,4.25044 1.599196,3.38042 1.599197,3.38043 2.136709,2.07514 c 1.17519,1.14133 2.43279,2.08006 2.79467,2.08607 0.36188,0.006 1.84609,0.816 3.29825,1.8 l 2.64029,1.78908 h 2.0395 2.03951 l 1.68114,-0.86935 c 2.41458,-1.24863 5.40556,-4.86831 7.12358,-8.62097 l 1.48565,-3.24508 1.23504,-6.26211 1.23504,-6.26211 1.83998,0.17981 1.83998,0.17981 -0.19109,2.19336 -0.19109,2.19336 1.3203,2.60664 c 0.72617,1.43365 2.99851,5.07171 5.04966,8.08457 l 3.72935,5.47792 0.35624,2.62208 0.35624,2.62207 -0.84579,6.3 c -0.46519,3.465 -0.85435,6.65343 -0.86481,7.08541 l -0.019,0.78541 0.6,-0.37082 0.6,-0.37082 z m -30.64298,-13.98866 c -0.82483,-0.32891 -2.11314,-1.17431 -2.86291,-1.87868 -0.74976,-0.70437 -1.79522,-1.34408 -2.32323,-1.42157 -4.361354,-0.64012 -8.86872,-10.70288 -9.630738,-21.50077 l -0.348588,-4.93953 0.721187,-5.04269 0.721188,-5.04269 1.232736,-2.58682 1.232737,-2.58681 0.703789,0.27007 0.703789,0.27007 0.88218,-0.68326 c 0.4852,-0.37579 1.23466,-1.49325 1.66546,-2.48325 0.43081,-0.99 1.47248,-2.80636 2.31482,-4.03635 l 1.53155,-2.23634 2.07268,-0.38884 2.07268,-0.38883 0.66453,0.66453 0.66454,0.66454 -1.82893,2.56065 c -2.56287,3.58819 -4.09284,6.82062 -5.0459,10.66064 l -0.81903,3.3 -0.0124,7.54885 -0.0124,7.54886 -0.9,0.0104 c -0.495,0.006 -1.09837,-0.28627 -1.34081,-0.64885 l -0.44081,-0.65925 -0.0184,1.2 -0.0184,1.2 -0.58162,-0.9 -0.581625,-0.9 0.0012,0.9 c 0.0048,3.50838 3.819195,15.5612 4.658945,14.72145 0.17329,-0.17329 0.97317,0.65341 1.77752,1.83712 l 1.46245,2.15218 2.04579,0.85479 2.0458,0.85479 1.49494,-0.37521 c 1.7143,-0.43026 2.00765,-1.4187 0.44495,-1.49923 l -1.05,-0.0541 2.1,-0.59478 c 3.38463,-0.95863 8.11372,-6.93316 6.96241,-8.79601 -0.16492,-0.26685 0.0651,-2.58675 0.51113,-5.15535 l 0.811,-4.67017 0.64773,-0.64773 0.64773,-0.64773 0.39091,0.39091 0.39092,0.39092 -0.95004,5.17395 -0.95003,5.17395 -1.86675,3.99513 c -3.37527,7.22364 -7.58528,10.17934 -11.9947,8.42107 z M 102.302,163.05 l -2.03885,-4.35 -0.749684,-3.9 c -0.412323,-2.145 -1.101531,-4.43258 -1.531572,-5.0835 L 97.2,148.53299 v 0.7977 0.7977 l -0.90742,-0.34821 -0.907419,-0.34821 0.367588,1.63401 c 1.555184,6.91316 3.247558,10.72589 6.308291,14.21187 2.5546,2.90953 2.57227,2.74613 0.24096,-2.22785 z m 82.77243,7.46318 C 180.1091,167.4011 175.2,156.77116 175.2,149.13156 V 147.6 h 0.61485 c 1.09589,0 2.88262,7.78583 2.51646,10.96568 -0.1481,1.28609 2.03824,6.09613 3.21472,7.07252 0.46343,0.38461 1.85766,1.06151 3.09828,1.50421 l 2.25569,0.80492 -1.05,0.0263 c -0.5775,0.0145 -1.05,0.27489 -1.05,0.57867 v 0.55232 l 1.69577,0.37246 1.69576,0.37245 1.45424,-0.55732 1.45423,-0.55732 2.9424,-3.21746 2.94239,-3.21746 1.40761,-4.37286 c 1.45512,-4.52046 1.64656,-6.07444 1.03119,-8.37039 l -0.36002,-1.34325 -0.68178,0.42638 c -0.37499,0.2345 -1.00136,0.47495 -1.39194,0.53431 l -0.71015,0.10793 0.32867,-3.99106 0.32867,-3.99106 -0.68541,-5.58801 -0.6854,-5.588 -1.12394,-2.95797 c -0.61817,-1.62689 -2.09557,-4.31041 -3.28312,-5.96339 C 189.97163,119.54966 189,117.79285 189,117.29861 V 116.4 h 1.75396 1.75397 l 1.70854,1.43764 1.70854,1.43764 1.44645,2.91236 c 1.41681,2.85269 2.94267,4.53625 3.69173,4.0733 0.20704,-0.12795 0.83657,0.27581 1.39897,0.89724 l 1.02253,1.12989 0.96655,3.50596 0.96655,3.50597 -0.0128,7.5 -0.0128,7.5 -1.05122,3.9 c -1.86822,6.93106 -5.60788,13.02247 -8.23118,13.40749 -0.45986,0.0675 -1.81757,0.87132 -3.01715,1.78628 l -2.18106,1.66357 -2.00577,0.30002 -2.00578,0.30002 z m 14.61255,-7.74435 c 2.15979,-3.3743 2.90872,-5.23337 4.00989,-9.95366 l 0.81366,-3.48785 -0.85527,0.70981 -0.85526,0.7098 v -1.01632 -1.01632 l -0.9,0.9 c -0.495,0.495 -0.9,1.35281 -0.9,1.90625 0,2.09073 -1.94992,8.50936 -3.59181,11.82329 l -1.70625,3.44383 1.0744,-0.575 c 0.59092,-0.31625 1.90071,-1.86597 2.91064,-3.44383 z M 187.8,164.78797 c 0,-0.19743 0.53899,-1.24299 1.19776,-2.32347 0.65876,-1.08047 1.19775,-2.2345 1.19775,-2.5645 0,-0.33 -0.52454,0.26027 -1.16565,1.31171 -0.6411,1.05144 -1.70134,2.1984 -2.35609,2.54881 l -1.19043,0.6371 -0.95566,-0.95565 c -2.22437,-2.22437 -4.49178,-9.55608 -4.51726,-14.60665 L 180,146.77064 l 0.87016,1.16468 0.87016,1.16468 -0.34014,-1.35 -0.34014,-1.35 H 174.23002 167.4 v -0.6 -0.6 h 6.3 6.3 v -1.17827 -1.17828 l -5.85,-0.19615 -5.85,-0.19615 5.9,-0.12558 5.9,-0.12557 -0.24842,-0.75 -0.24842,-0.75 -5.20158,-0.17336 L 169.2,140.35328 V 139.77664 139.2 h 5.4 5.4 v -2.43156 c 0,-1.33735 0.42396,-4.29556 0.94213,-6.57378 l 0.94213,-4.14223 1.33177,-1.97622 L 184.5478,122.1 H 186 h 1.4522 l 1.3739,2.03873 c 0.75565,1.1213 1.3739,1.84605 1.3739,1.61056 0,-0.76493 -1.32048,-3.01693 -2.57957,-4.39929 L 186.39082,120 h -1.64207 -1.64208 l -1.50177,1.78476 c -1.78058,2.11609 -2.68736,4.64992 -3.96139,11.06928 l -0.94351,4.75404 -0.82866,0.27218 -0.82865,0.27218 0.43829,-3.52622 c 0.24106,-1.93942 1.1161,-5.67536 1.94452,-8.30208 l 1.50623,-4.77587 2.04663,-2.04663 2.04664,-2.04664 1.78493,0.35699 c 0.98172,0.19634 2.45423,0.79552 3.27224,1.3315 l 1.48731,0.97452 1.51752,3.1017 1.51751,3.10169 0.89775,4.69208 0.89774,4.69208 -0.0104,7.29722 -0.0104,7.29722 -0.8725,4.11814 -0.8725,4.11814 -1.4825,2.52969 c -1.37858,2.35238 -3.35166,4.54347 -3.35166,3.722 z m -33.52582,-17.11379 -1.19851,-1.19851 0.70964,-1.88004 0.70964,-1.88005 1.92155,-1.18758 1.92155,-1.18758 0.37066,-1.16786 0.37066,-1.16786 -0.75235,-2.08061 -0.75236,-2.0806 1.12956,-1.24816 1.12957,-1.24815 1.17183,0.17641 1.17183,0.17641 0.64103,1.02277 0.64104,1.02278 -1.33022,5.87722 -1.33022,5.87723 -1.10888,1.5 -1.10888,1.5 -1.55431,0.18635 -1.55432,0.18634 z"
         id="path62" />
      <path
         style="fill:#703501"
         d="M 0,150 V 0 H 150 300 V 150 300 H 150 0 Z m 140.0153,34.35 c 0.20813,-1.5675 0.8253,-4.76977 1.3715,-7.11615 l 0.99308,-4.26615 2.16006,-0.53656 2.16006,-0.53655 -2.4,-1.25321 -2.4,-1.25322 -5.55,-8.28083 -5.55,-8.28083 v -2.37118 -2.37118 l 2.32573,-2.64217 2.32574,-2.64217 2.26183,-4.3499 c 2.73637,-5.26251 2.54594,-5.03066 3.4167,-4.1599 0.98134,0.98134 1.67,0.88783 1.67,-0.22676 v -0.93677 l 2.85,0.39631 2.85,0.39631 0.82318,1.14046 0.82319,1.14045 h 0.94149 0.9415 l -1.16468,-0.88092 -1.16468,-0.88092 1.8,-0.0981 1.8,-0.0981 -2.1,-0.37101 -2.1,-0.37102 -0.18089,-2.47625 -0.1809,-2.47625 0.97375,-0.97375 c 0.53557,-0.53556 1.45262,-0.97375 2.0379,-0.97375 h 1.06415 l 1.06406,1.17577 1.06406,1.17577 -0.0347,2.51636 -0.0347,2.51637 -0.78633,0.49868 -0.78634,0.49867 1.41419,0.009 1.4142,0.009 -0.35069,0.91388 -0.35069,0.91389 1.18649,-0.635 1.1865,-0.63499 v 1.70886 1.70885 l -1.73305,1.66037 -1.73305,1.66037 -2.42895,0.32579 c -1.33592,0.17918 -3.36975,0.14929 -4.51962,-0.0664 l -2.09067,-0.39222 -1.23722,-1.93169 -1.23722,-1.93169 -0.0101,1.06927 c -0.006,0.5881 0.40911,2.0726 0.92148,3.29889 l 0.9316,2.22962 -1.30746,1.05872 c -0.71911,0.5823 -2.01583,1.21391 -2.8816,1.40359 -0.86577,0.18968 -2.24913,0.56994 -3.07413,0.84502 l -1.5,0.50015 1.38541,0.0474 1.38541,0.0474 -0.42923,0.69451 -0.42924,0.69452 1.2661,-0.33109 1.2661,-0.3311 -0.99985,1.52597 -0.99985,1.52596 1.28055,-0.68533 c 0.7043,-0.37693 2.04863,-1.61715 2.98741,-2.75604 l 1.70686,-2.07072 2.71616,1.69058 2.71616,1.69058 2.90769,3.22608 2.90768,3.22608 -0.33888,-1.2 c -0.18639,-0.66 -0.5075,-2.04106 -0.71357,-3.06902 l -0.37469,-1.86902 1.90489,-0.38098 C 157.0928,150.17144 159.24553,150 160.82896,150 h 2.87897 l 1.78265,-1.5 c 0.98046,-0.825 2.08117,-1.5 2.44603,-1.5 H 168.6 v 0.81908 c 0,0.4505 -0.5523,1.52123 -1.22734,2.37939 l -1.22733,1.56031 0.9542,1.45629 0.9542,1.45629 -0.84038,3.63764 c -0.46221,2.00071 -1.30161,4.34158 -1.86534,5.20194 -1.08775,1.66012 -6.05052,5.08906 -7.36548,5.08906 -0.43039,0 -0.78253,0.27 -0.78253,0.6 v 0.6 h 2.14173 2.14173 l -0.19173,1.29507 -0.19173,1.29506 -3.3,2.26357 -3.3,2.26357 -0.3,4.84256 -0.3,4.84255 0.37611,-0.001 c 0.20687,-6.5e-4 1.01687,-1.41869 1.8,-3.15119 l 1.42389,-3.15 0.18081,3.47902 0.18081,3.47903 3.28724,-0.17903 3.28724,-0.17902 0.17171,-9 0.17171,-9 1.91163,-5.47525 1.91162,-5.47525 0.33711,-3.82475 c 0.18541,-2.10361 0.45993,-4.43225 0.61004,-5.17475 l 0.27294,-1.35 h 2.00625 2.00625 l 0.7472,4.65 c 0.91631,5.70244 2.95284,11.26782 5.45288,14.90152 l 1.88455,2.73909 1.89,1.15245 1.89001,1.15245 2.45971,0.002 2.45971,0.002 2.64029,-1.78908 c 1.45216,-0.984 2.93279,-1.794 3.29029,-1.8 2.66158,-0.0447 6.9278,-7.18381 8.7825,-14.69666 L 206.59506,148.8 h 1.3534 c 0.74437,0 1.77755,-0.16276 2.29595,-0.36169 l 0.94256,-0.3617 0.65537,-2.43384 0.65536,-2.43384 -0.40254,-2.15447 c -0.2214,-1.18495 -0.68144,-2.49196 -1.02232,-2.90446 l -0.61977,-0.75 h -1.92436 -1.92435 l -1.00108,-4.65 -1.00107,-4.65 -1.70727,-3.60545 -1.70727,-3.60546 -2.21471,-1.94454 C 197.75487,117.87505 196.47962,117 196.13909,117 c -0.34054,0 -1.53603,-0.69934 -2.65666,-1.55408 l -2.03751,-1.55408 -2.31877,-0.31101 -2.31877,-0.31102 -2.4722,1.26123 -2.47221,1.26122 -1.85603,2.69766 c -1.02082,1.48371 -2.49808,4.4034 -3.2828,6.4882 l -1.42676,3.79055 -0.7525,4.91567 -0.7525,4.91566 h -1.92301 -1.923 l -0.82728,-1.24594 -0.82727,-1.24593 -2.09591,-0.42866 -2.09591,-0.42866 -0.075,-0.72541 c -0.0413,-0.39897 -0.10875,-1.25918 -0.15,-1.91157 l -0.075,-1.18617 -1.58415,-1.03797 -1.58414,-1.03797 -2.31586,0.0924 -2.31585,0.0923 v -0.59548 c 0,-0.32752 -0.66273,-1.25821 -1.47273,-2.06821 L 153.05455,125.4 h -3.59187 -3.59186 l -0.37082,-0.6 -0.37082,-0.6 h -2.9734 -2.9734 l -2.24119,2.05388 -2.24119,2.05388 -0.21157,5.14612 -0.21157,5.14612 h -4.10167 -4.10166 l -0.38554,-2.85 c -1.41783,-10.48117 -5.5498,-18.89636 -10.54726,-21.48065 L 113.45959,113.4 h -2.04607 -2.04606 l -2.03373,1.37864 c -1.11855,0.75825 -3.12437,1.99102 -4.45738,2.73948 l -2.42366,1.36083 -2.013524,2.95067 -2.013524,2.95067 -1.412821,4.87783 C 94.235769,132.34093 93.6,135.18037 93.6,135.96798 V 137.4 h -2.327208 -2.327208 l -0.748462,1.80695 -0.748462,1.80695 0.297273,3.09377 0.297273,3.09378 1.093075,0.79927 1.093075,0.79928 h 1.608637 1.608637 l 0.370432,2.31655 c 0.203738,1.27411 0.906784,4.05306 1.562324,6.17546 l 1.191893,3.8589 1.879394,2.83736 1.879397,2.83737 2.78496,1.60014 c 1.53173,0.88007 3.42888,2.0893 4.21589,2.68718 l 1.43091,1.08704 h 2.80252 2.80251 l 2.05481,-1.51599 c 4.61907,-3.40784 7.47591,-9.83088 9.26654,-20.83401 l 0.36617,-2.25 h 1.69647 1.69647 l 0.28184,2.93314 0.28184,2.93313 4.69157,7.11687 4.69157,7.11686 0.48678,2.56057 0.48679,2.56058 -0.88386,6.70127 c -1.03888,7.87671 -1.0294,7.67758 -0.3654,7.67758 h 0.51844 z M 108.87025,170.77943 C 104.58628,168.85869 99,158.13373 99,151.82979 v -1.6438 L 97.8,149.1 l -1.2,-1.08599 -0.0092,1.143 L 96.581625,150.3 96,149.4 l -0.581625,-0.9 -0.0092,0.92394 c -0.0395,3.97168 3.292507,12.17829 6.293025,15.4995 l 2.23742,2.47656 h -0.62306 c -0.34268,0 -1.58694,-1.12608 -2.76502,-2.50239 l -2.141954,-2.50239 -1.268268,-3.34761 C 96.443784,157.20642 95.465759,153.405 94.967943,150.6 l -0.905119,-5.1 0.331097,-5.1 c 0.182104,-2.805 0.643471,-6.53209 1.025261,-8.28243 l 0.694164,-3.18243 1.424366,-1.61757 1.424367,-1.61757 0.01896,0.75 L 99,127.2 100.2,126 c 0.66,-0.66 1.2,-1.38938 1.2,-1.62084 0,-0.23146 0.85252,-1.8275 1.8945,-3.54675 l 1.8945,-3.1259 1.43373,-0.65326 c 1.78732,-0.81435 3.59093,-0.84016 4.07415,-0.0583 l 0.36771,0.59495 -1.87418,2.72403 c -1.0308,1.49821 -2.51616,4.13298 -3.3008,5.85504 l -1.42663,3.13102 -0.62696,3.9 c -0.34482,2.145 -0.62899,6.517 -0.63149,9.71555 L 103.2,148.7311 102,148.5 l -1.2,-0.2311 -0.009,0.71555 -0.009,0.71555 -0.58162,-0.9 -0.581625,-0.9 -3.19e-4,1.5 c -7.7e-4,3.62066 3.790144,15.5918 4.661534,14.72041 0.17385,-0.17385 0.8096,0.4954 1.41277,1.48723 l 1.09667,1.80333 1.95549,1.19227 c 2.23811,1.36459 3.58749,1.48944 5.43154,0.50253 l 1.29717,-0.69422 -1.18661,-0.4636 -1.18662,-0.46361 1.30396,-0.0422 1.30397,-0.0422 1.86759,-1.57147 c 2.38054,-2.00309 3.67499,-4.51645 3.94075,-7.65151 0.36274,-4.27916 1.43053,-9.56382 2.05949,-10.19278 L 124.18,147.38 l 0.40479,0.40479 0.40478,0.40478 -1.02087,5.25522 -1.02087,5.25521 -2.22392,4.45635 -2.22391,4.45635 -2.10243,1.67914 -2.10243,1.67913 -1.79757,0.31442 -1.79757,0.31442 z m 76.81859,-0.002 -1.81115,-0.80279 -1.99799,-2.27559 C 178.81932,164.21352 175.2,154.25656 175.2,149.32285 v -1.68519 l 0.82329,0.31593 0.82328,0.31592 0.77888,4.61525 c 0.42839,2.53838 0.82317,5.45598 0.87729,6.48355 l 0.0984,1.86831 1.35305,2.18928 c 1.37391,2.22304 2.64958,3.16731 5.41076,4.00516 l 1.53504,0.4658 -1.38541,0.0516 -1.38541,0.0516 0.34229,0.55384 c 0.18826,0.30461 1.13654,0.72828 2.10729,0.94149 l 1.76499,0.38766 2.16476,-1.02725 2.16477,-1.02724 1.36655,-2.01106 c 0.7516,-1.10608 1.50833,-1.86928 1.68162,-1.69599 0.84522,0.84522 4.71088,-11.94231 4.66936,-15.44616 l -0.009,-0.77529 -0.58162,0.9 -0.58162,0.9 -0.009,-0.66749 -0.009,-0.66749 -1.38354,0.15187 -1.38354,0.15187 0.25356,-3.50544 0.25356,-3.50544 -0.67436,-5.71805 -0.67437,-5.71804 -1.24648,-3.33153 -1.24649,-3.33152 -2.09056,-2.73879 -2.09056,-2.73879 0.35063,-0.91373 0.35063,-0.91373 1.90139,0.38027 c 2.70049,0.5401 3.96788,1.88543 6.26393,6.6491 1.10891,2.30069 2.02033,3.78569 2.02539,3.3 l 0.009,-0.88307 0.58162,0.9 0.58162,0.9 0.009,-0.86314 0.009,-0.86313 1.20826,1.29691 1.20826,1.29691 0.97332,3.76623 0.97333,3.76622 0.0362,6.6 0.0362,6.6 -1.02935,4.5 -1.02935,4.5 -1.96869,3.54642 -1.96869,3.54642 -2.03656,1.55358 -2.03655,1.55358 0.53856,-0.9 c 0.29621,-0.495 1.10238,-1.34774 1.79149,-1.89499 2.44328,-1.94029 5.10831,-8.10857 6.56937,-15.20501 l 0.3706,-1.8 -0.6639,0.9 -0.66391,0.9 -0.30432,-0.75 C 202.83694,149.1375 202.3175,148.8 201.85,148.8 H 201 v 1.67394 c 0,2.87088 -1.72818,8.64203 -3.95147,13.19564 l -2.13344,4.36958 -2.20754,1.4439 C 191.4934,170.2772 189.825,171.07395 189,171.25361 l -1.5,0.32665 z m -75.48889,-7.56812 c -0.8287,-0.98485 -2.1268,-3.34735 -2.88467,-5.25 L 105.93733,154.5 105.91867,143.4 105.9,132.3 106.73215,129 c 0.45769,-1.815 1.47228,-4.57764 2.25464,-6.13921 l 1.42249,-2.83921 1.34536,-0.87015 c 0.73995,-0.47859 2.05463,-1.04438 2.92151,-1.25731 l 1.57615,-0.38714 2.14428,1.88271 2.14429,1.8827 1.28438,3.41381 c 0.70642,1.87759 1.68637,5.52965 2.17768,8.11569 l 0.89328,4.7019 -0.39716,0.39716 -0.39716,0.39716 -0.76858,-1.05108 -0.76857,-1.05109 -0.38662,-3.28951 c -0.51036,-4.3424 -1.9588,-8.55148 -3.77034,-10.95643 L 116.93893,120 h -1.42039 c -0.78122,0 -1.86,0.16869 -2.3973,0.37487 l -0.97691,0.37488 -1.47216,2.90518 c -0.8097,1.59785 -1.46624,3.25165 -1.45899,3.67512 0.007,0.42347 0.50446,-0.31005 1.10491,-1.63005 0.60045,-1.32 1.52655,-2.7598 2.058,-3.19955 l 0.96626,-0.79954 1.04634,0.20151 1.04634,0.2015 1.13603,1.94516 c 1.4436,2.47178 2.59826,6.83996 3.08472,11.66975 l 0.38084,3.78117 -0.93747,-1.65 -0.93747,-1.65 h -2.05973 -2.05973 l -0.62111,1.16056 c -0.34161,0.6383 -0.58979,2.0558 -0.55151,3.15 l 0.0696,1.98944 0.29515,-1.2 c 0.16233,-0.66 0.80601,-1.68302 1.4304,-2.27337 l 1.13525,-1.07338 0.0598,1.07338 0.0598,1.07337 0.40674,-1.45552 c 0.22371,-0.80053 0.70353,-1.55444 1.06627,-1.67536 l 0.65952,-0.21984 0.39827,1.03788 0.39828,1.03789 -0.92435,0.51729 L 117,139.85963 v 2.77294 2.77294 l 0.86965,0.96095 0.86964,0.96095 -0.50256,0.81316 -0.50257,0.81317 -0.66708,-0.41228 c -0.36689,-0.22675 -0.68606,-1.00385 -0.70925,-1.72687 l -0.0422,-1.31459 -0.51566,1.2 -0.51566,1.2 -0.0514,-0.9 -0.0514,-0.9 -0.55853,0.88318 -0.55854,0.88319 -0.30285,-0.88319 c -0.16657,-0.48575 -0.41433,-1.55818 -0.55057,-2.38318 l -0.24771,-1.5 -0.0817,2.1165 -0.0817,2.11649 0.93402,1.33351 0.93402,1.3335 h 1.41594 1.41593 l 1.23104,-1.65 1.23103,-1.65 0.019,1.37529 c 0.0105,0.75642 -0.40736,3.45642 -0.92849,6 l -0.9475,4.62471 -1.31029,2.4 -1.31029,2.4 -1.60791,0.18654 -1.6079,0.18655 -1.03515,-1.98655 c -0.56933,-1.0926 -1.3767,-3.06654 -1.79417,-4.38654 l -0.75902,-2.4 -0.0397,1.2 c -0.0218,0.66 0.75866,2.8875 1.73439,4.95 1.99975,4.2271 1.97416,4.51355 -0.17505,1.95936 z M 187.8,164.80749 c 0,-0.20817 0.53899,-1.26251 1.19776,-2.34299 1.65143,-2.70859 1.51692,-3.51003 -0.16838,-1.00323 l -1.37061,2.03873 -1.26015,0.18266 -1.26015,0.18266 -1.23901,-1.57516 -1.23902,-1.57515 -0.93517,-3.21689 c -0.51435,-1.76929 -1.07426,-4.92267 -1.24426,-7.00751 l -0.30908,-3.79061 0.69983,1.3368 c 0.79912,1.52645 2.41941,2.20556 4.03719,1.6921 l 1.10894,-0.35197 0.69106,-1.51669 0.69105,-1.5167 v -3.18224 -3.18223 l -0.66987,-1.92159 -0.66987,-1.92159 -2.16633,0.18206 -2.16634,0.18205 -0.81064,1.5 -0.81065,1.5 0.3134,-3.9 0.3134,-3.9 1.1863,-3.80065 1.1863,-3.80066 1.04014,-1.14934 1.04015,-1.14935 H 186 c 2.08992,0 3.69859,2.9288 5.10814,9.3 l 0.79646,3.6 0.0477,-1.5868 c 0.0262,-0.87274 -0.49933,-3.35788 -1.16792,-5.52253 l -1.21563,-3.93574 -1.53771,-1.82746 L 186.49333,120 H 184.8 183.10667 l -1.54819,1.83992 -1.54819,1.83992 -1.14539,4.01008 c -0.62996,2.20554 -1.37477,5.33997 -1.65514,6.96539 l -0.50976,2.95531 -0.75,0.24469 -0.75,0.24469 0.0104,-1.4 c 0.006,-0.77 0.4058,-3.26636 0.88905,-5.54746 l 0.87864,-4.14747 1.75985,-3.7607 1.75984,-3.7607 1.88109,-0.97275 1.88108,-0.97275 1.32002,0.3971 c 0.726,0.21841 2.19817,1.23092 3.27147,2.25003 l 1.95145,1.85292 1.1527,3.08088 c 1.53369,4.09913 2.44439,10.99692 2.44439,18.51412 v 6.14639 l -0.65596,3.56019 -0.65596,3.5602 -1.44331,3.05634 c -1.25683,2.66147 -3.84477,5.92681 -3.84477,4.85115 z m -26.62394,-16.17768 -1.0533,-0.77019 1.58772,-3.27981 c 0.87325,-1.8039 1.91164,-3.95481 2.30755,-4.77981 l 0.71982,-1.5 1.63449,-0.19018 1.63448,-0.19019 0.37842,0.98615 0.37842,0.98614 -1.13102,3.3274 -1.13102,3.32741 -1.32216,1.42663 c -1.49346,1.61148 -2.47681,1.77272 -4.0034,0.65645 z m -6.64618,-0.63376 -1.09947,-0.80396 0.40287,-2.14744 0.40286,-2.14744 2.06255,-1.21694 2.06255,-1.21693 0.40715,-1.62223 0.40716,-1.62223 -0.68778,-1.1013 c -1.85702,-2.97356 1.94437,-6.42969 4.14953,-3.77264 l 0.78423,0.94494 -0.73965,3.70506 c -0.40681,2.03778 -1.15814,5.05506 -1.66963,6.70506 l -0.92998,3 -1.20761,1.05 c -1.44501,1.25642 -2.85389,1.33621 -4.34478,0.24605 z M 118,146 c -0.22,-0.22 -0.4,-1.705 -0.4,-3.3 v -2.9 l 9.45,0.1241 9.45,0.1241 -8.35135,0.3259 -8.35136,0.3259 -0.24274,0.73228 -0.24274,0.73228 7.9941,0.1867 7.99409,0.18669 -7.99399,0.13103 -7.994,0.13102 0.20111,1.05 0.20111,1.05 6.46561,0.17053 6.4656,0.17053 -0.35813,0.57947 -0.35813,0.57947 H 125.16459 118.4 Z m 49.4,-0.2 v -0.6 h 6.23581 6.2358 l 0.3642,-0.94907 c 0.2003,-0.52199 0.36419,-1.06199 0.36419,-1.2 0,-0.13801 -2.7675,-0.30744 -6.15,-0.3765 l -6.15,-0.12558 5.85,-0.19615 5.85,-0.19615 v -0.85576 -0.85576 l -5.55,-0.20889 -5.55,-0.2089 6.6,0.0364 6.6,0.0364 0.19685,1.7225 c 0.10827,0.94737 0.0356,2.36487 -0.16143,3.15 L 181.77714,146.4 H 174.58857 167.4 Z m -31.79081,-12.72177 -0.009,-2.82177 0.68746,-1.5088 0.68745,-1.5088 2.35527,-1.16529 2.35527,-1.1653 1.73773,0.49838 c 0.95576,0.27411 2.01653,0.67068 2.35728,0.88127 l 0.61954,0.3829 v 3.19089 3.19089 l -2.62987,-0.29643 -2.62988,-0.29642 -1.24723,1.24723 -1.24723,1.24723 -0.39091,-2.08373 c -0.21501,-1.14605 -0.63031,-2.23169 -0.9229,-2.41252 l -0.53198,-0.32878 -0.009,1.98541 c -0.005,1.09198 -0.2713,2.39041 -0.59119,2.88541 l -0.58162,0.9 z"
         id="path61" />
      <path
         style="fill:#522601"
         d="M 0,150 V 0 H 150 300 V 150 300 H 150 0 Z m 139.84329,35.55 c 0.0238,-0.9075 0.63132,-4.05591 1.35002,-6.99648 l 1.30673,-5.34647 2.0708,-0.69723 2.07079,-0.69723 -2.48592,-1.39717 -2.48592,-1.39716 -4.46489,-6.65913 c -2.4557,-3.66252 -4.9014,-7.52322 -5.4349,-8.57933 l -0.97,-1.92021 v -1.76446 -1.76447 l 2.44231,-2.91533 c 1.34327,-1.60343 3.21482,-4.42358 4.15899,-6.26699 l 1.71669,-3.35165 -0.51235,-2.27171 c -0.2818,-1.24943 -0.80335,-2.56269 -1.159,-2.91834 L 136.8,129.96 v 2.18459 2.18459 l -0.6,0.37082 -0.6,0.37082 V 132.27541 129.48 l 2.04,-2.04 2.04,-2.04 2.61,0.079 2.61,0.079 -2.1,0.442 c -1.155,0.24312 -1.695,0.48171 -1.2,0.5302 l 0.9,0.0882 -0.9,0.58162 c -1.44563,0.93424 -0.10877,0.68706 1.89874,-0.35106 l 1.83914,-0.95106 0.56735,0.56735 0.56736,0.56736 -0.1863,2.92468 -0.18629,2.92468 -2.58058,-0.18906 -2.58058,-0.18907 -0.86942,0.72156 c -0.47818,0.39685 -0.86529,1.02599 -0.86023,1.39809 l 0.009,0.67653 0.56582,-0.89498 0.56583,-0.89499 0.74499,0.74499 c 0.9996,0.9996 1.70498,0.94022 1.70498,-0.14354 v -0.88852 l 2.85,0.36401 2.85,0.36401 0.9,1.11268 0.9,1.11268 2.1,0.3098 2.1,0.30979 -1.95,-0.61512 -1.95,-0.61512 v -0.63558 -0.63559 l 2.55,0.42129 c 3.04361,0.50283 3.39859,0.75171 2.23262,1.56534 l -0.88262,0.61591 1.65,-0.35996 1.65,-0.35996 v 1.07793 c 0,0.59286 -0.44029,1.70652 -0.97842,2.47481 l -0.97841,1.39688 -2.00231,0.83662 c -2.06106,0.86117 -5.03075,1.06698 -7.14086,0.4949 l -1.2,-0.32534 -1.35,-1.90802 -1.35,-1.90802 v 1.37134 c 0,0.75425 0.42929,2.20151 0.95398,3.21615 l 0.95398,1.84479 -0.85866,0.85866 c -0.47226,0.47227 -2.45405,1.35907 -4.40398,1.97068 l -3.54532,1.11202 1.38541,0.0547 1.38541,0.0547 -0.37082,0.6 -0.37082,0.6 h 1.00888 1.00887 l -0.75896,0.9145 c -1.70501,2.05441 0.10643,1.42319 2.65356,-0.92466 l 2.73273,-2.51895 2.64341,1.54914 2.64341,1.54914 2.86246,3.16542 2.86247,3.16541 -0.39301,-1.65 c -0.21615,-0.9075 -0.54761,-2.28649 -0.73657,-3.06442 l -0.34356,-1.41443 2.29356,-0.37897 c 1.26146,-0.20844 3.52901,-0.38194 5.03898,-0.38558 L 164.19082,150 165.6,148.5 c 0.77505,-0.825 1.76711,-1.5 2.20459,-1.5 H 168.6 v 0.81908 c 0,0.4505 -0.56615,1.53883 -1.25811,2.41851 l -1.2581,1.59943 0.75429,0.90887 0.7543,0.90887 -0.0817,2.17429 c -0.045,1.19587 -0.5123,3.47058 -1.03853,5.05491 l -0.95678,2.88062 -1.90316,1.6014 c -1.04673,0.88077 -3.12018,2.16375 -4.60766,2.85107 l -2.70451,1.24967 2.55,0.20114 2.55,0.20114 v 1.14314 1.14315 l -3.53549,2.40091 -3.5355,2.4009 -0.25539,4.97145 c -0.3167,6.16515 -0.34038,6.14117 1.85755,1.88148 l 1.81111,-3.51003 0.0289,3.45 0.0289,3.45 h 3.47988 3.47988 l 0.005,-9.45 0.005,-9.45 1.59464,-3.80249 c 1.71102,-4.08003 2.83604,-9.1412 2.83604,-12.75863 0,-1.23241 0.16389,-2.66782 0.36419,-3.18981 l 0.3642,-0.94907 h 1.96667 1.96667 l 0.42877,3.45 c 0.23583,1.8975 1.06749,5.475 1.84814,7.95 l 1.41937,4.5 1.7302,2.7 c 2.19675,3.42804 3.66872,4.72033 6.47589,5.68539 l 2.24354,0.77129 1.84618,-0.52821 c 1.0154,-0.29052 2.5264,-1.03031 3.35778,-1.64398 0.83139,-0.61368 2.07462,-1.29447 2.76274,-1.51287 0.68812,-0.2184 2.23859,-1.38455 3.44548,-2.59144 l 2.19436,-2.19436 1.53516,-3.24506 c 1.24372,-2.62901 3.1933,-9.66307 3.24024,-11.69076 0.006,-0.2475 0.80113,-0.45 1.76756,-0.45 h 1.75715 l 0.91928,-0.91929 0.91929,-0.91929 0.39433,-2.10193 0.39432,-2.10193 -0.37432,-1.8716 c -0.20587,-1.02937 -0.67577,-2.23482 -1.04422,-2.67878 L 210.45363,137.4 H 208.42709 206.4 v -1.09058 c 0,-2.01361 -2.19037,-9.45825 -3.63228,-12.34539 l -1.42823,-2.85975 -2.27147,-2.05214 C 197.81871,117.92346 196.52498,117 196.19308,117 c -0.33191,0 -1.72164,-0.81 -3.0883,-1.8 l -2.48483,-1.8 h -2.47069 -2.4707 l -2.15298,1.46299 -2.15299,1.46299 -1.84565,2.88701 -1.84565,2.88701 -1.49924,4.5 -1.49924,4.5 -0.41891,3.75 -0.4189,3.75 h -2.00139 -2.00139 l -0.62151,-1.16131 -0.62152,-1.16131 -2.07656,-0.75089 -2.07657,-0.7509 -0.35704,-1.62558 -0.35704,-1.62558 -1.22924,-1.11221 -1.22923,-1.11222 -2.63676,0.0575 L 156,129.415 v -0.70295 c 0,-0.38662 -0.6728,-1.33501 -1.49512,-2.10753 l -1.49511,-1.40459 -2.85489,0.0344 -2.85488,0.0345 -2.483,-0.80459 -2.483,-0.80458 -2.11764,0.58471 -2.11764,0.58471 -1.84936,2.1063 -1.84936,2.10631 v 4.77912 4.77912 h -4.09116 -4.09115 l -0.94509,-5.25 c -0.5198,-2.8875 -1.53644,-6.81122 -2.25921,-8.71939 l -1.31412,-3.46938 -1.92494,-2.52377 c -1.05871,-1.38807 -2.83098,-3.13434 -3.93836,-3.88061 l -2.01343,-1.35685 h -2.22754 -2.22754 l -2.1344,1.44844 c -1.17392,0.79664 -3.10047,1.90687 -4.28122,2.46718 l -2.14683,1.01873 -1.804777,2.45412 c -2.224253,3.02451 -4.11845,7.91013 -4.986523,12.86153 l -0.657446,3.75 h -2.292982 -2.292983 l -0.637798,1.65 -0.637799,1.65 0.248997,3.11363 0.248996,3.11363 0.777119,0.93637 0.77712,0.93637 h 1.92063 1.92063 l 0.649495,3.45 c 0.892745,4.74209 2.859128,9.75142 4.973767,12.6706 l 1.772464,2.44681 2.55804,1.29876 c 1.40692,0.71432 3.20195,1.80166 3.98896,2.4163 l 1.43091,1.11753 h 2.69826 2.69827 l 1.97997,-1.22369 1.97997,-1.22369 1.83023,-2.76314 c 2.43314,-3.67338 4.16904,-8.41389 5.28749,-14.43948 l 0.9188,-4.95 h 1.72259 1.72259 v 2.57759 2.57759 l 2.74911,4.45893 c 1.51201,2.45241 3.71998,5.78151 4.9066,7.398 l 2.15748,2.93908 0.41826,2.75602 0.41825,2.75601 -0.80584,6.01839 c -0.44321,3.31011 -0.81439,6.49089 -0.82485,7.06839 l -0.019,1.05 h 0.6 0.6 z M 107.7,169.89738 l -1.8,-1.09813 -1.68849,-2.43742 -1.68849,-2.43742 -1.43498,-4.12627 c -0.78924,-2.26945 -1.751498,-6.14495 -2.138357,-8.61221 l -0.70338,-4.48593 0.366308,-6.9 0.366308,-6.9 0.925175,-3.4344 c 0.769436,-2.85627 1.771636,-5.41628 3.801746,-9.71121 l 0.2579,-0.54561 -1.06674,0.40935 -1.06673,0.40934 0.81293,-0.97953 0.81294,-0.97952 0.23655,0.70966 0.23656,0.70967 1.28538,-1.1994 c 0.70695,-0.65967 1.96037,-1.3571 2.78537,-1.54984 l 1.5,-0.35045 0.80827,0.52739 0.80827,0.52739 -2.40448,3.52858 -2.40448,3.52858 -1.33794,3.9 -1.33794,3.9 -0.29369,7.9373 -0.29369,7.93731 -0.52216,-0.32272 -0.52216,-0.32271 -0.009,0.78541 -0.009,0.78541 -0.58162,-0.9 -0.58162,-0.9 -0.0184,1.2 -0.0184,1.2 -0.58162,-0.9 -0.581625,-0.9 0.0012,1.5 c 0.002,2.48122 1.591115,9.10952 2.922065,12.18841 l 1.24862,2.88841 0.60485,-0.37382 L 105,163.72918 v 0.61453 c 0,0.33799 0.83063,1.56056 1.84583,2.71682 l 1.84584,2.10229 1.91041,0.3584 1.91041,0.35839 1.79375,-0.724 1.79376,-0.724 -1.5,-0.456 -1.5,-0.45599 1.10742,-0.0598 c 0.60909,-0.0329 1.87504,-0.51325 2.81323,-1.06745 l 1.70581,-1.00765 1.5899,-2.92117 1.58991,-2.92118 -0.27211,-0.72118 c -0.38915,-1.03137 1.25654,-10.15188 1.95843,-10.85377 2.88802,-2.88802 -0.68938,12.31197 -4.20086,17.849 l -1.76692,2.78614 -1.9624,1.19648 -1.96241,1.19648 h -2.1 -2.1 z m 75.39879,-0.97951 -2.30467,-2.08213 -1.87433,-4.06787 -1.87434,-4.06787 -0.92272,-4.38923 C 175.61523,151.8967 175.2,149.40767 175.2,148.77961 v -1.14195 l 0.82329,0.31593 0.82328,0.31592 0.78308,4.61525 c 0.4307,2.53838 0.71405,4.99337 0.62968,5.45552 -0.54904,3.00752 2.68421,7.48271 6.35095,8.79043 l 2.28972,0.81662 -1.5,0.0454 -1.5,0.0454 1.16468,0.88092 1.16468,0.88092 h 1.41511 c 0.77832,0 2.20397,-0.40793 3.16812,-0.90651 l 1.753,-0.90651 1.42039,-2.0903 c 0.78122,-1.14967 1.56218,-1.94852 1.73547,-1.77523 0.88636,0.88636 4.65509,-11.26484 4.65894,-15.02145 l 0.001,-1.2 -0.58162,0.9 -0.58162,0.9 -0.0184,-1.2 -0.0184,-1.2 -0.58162,0.9 -0.58162,0.9 -0.009,-0.73117 -0.009,-0.73117 -0.75,0.28389 -0.75,0.28389 -0.0377,-7.05272 -0.0377,-7.05272 -0.79441,-3.3 c -0.94428,-3.92251 -2.95791,-8.10906 -5.15767,-10.72333 l -1.59403,-1.89439 0.37004,-0.96429 0.37003,-0.96429 1.90139,0.38027 c 1.04576,0.20916 2.32411,0.74684 2.84076,1.19486 0.51665,0.44802 1.23635,0.70582 1.59932,0.57289 l 0.65995,-0.24169 0.84005,1.01822 0.84005,1.01821 -1.35,-0.71934 c -1.68596,-0.89835 -1.68116,-0.82078 0.15198,2.45907 l 1.50198,2.68733 1.23394,4.73824 1.23395,4.73824 0.32682,6.6 0.32682,6.6 -1.22157,5.88286 -1.22156,5.88286 -1.80508,3.71714 c -1.94299,4.00116 -3.13291,5.56692 -5.46078,7.18559 L 190.53299,171 h -2.56477 -2.56476 z m -82.29578,-3.70611 c -2.19608,-2.5012 -3.747302,-5.84659 -5.188978,-11.19064 L 94.610177,150.3 l -0.0047,-7.5 -0.0047,-7.5 0.969669,-3.55337 0.969669,-3.55336 1.229967,-1.22997 L 99,125.73333 l 0.0092,0.88334 0.0092,0.88333 0.647412,-0.9 0.647418,-0.9 -0.415005,1.2 c -0.228249,0.66 -0.784299,3.225 -1.235667,5.7 l -0.820667,4.5 -0.02093,5.88541 L 97.8,148.87082 97.2,148.5 96.6,148.12918 V 148.8 149.47082 L 96,149.1 95.4,148.72918 v 0.60588 c 0,1.7118 1.518087,7.33187 2.711986,10.03996 l 1.355662,3.07503 2.235992,2.47497 2.23599,2.47498 h -0.60766 c -0.33421,0 -1.47225,-0.98471 -2.52896,-2.18824 z m 97.04811,0.167 c 3.1613,-3.60192 6.66397,-12.00216 6.74001,-16.16417 l 0.009,-0.48541 -0.6,0.37082 -0.6,0.37082 V 148.8 148.12918 l -0.6,0.37082 -0.6,0.37082 v -5.35682 -5.35681 l -0.88994,-5.10332 c -0.48947,-2.80682 -1.05494,-5.60969 -1.2566,-6.22859 L 199.6868,125.7 l 0.64741,0.9 0.64741,0.9 0.009,-0.86314 0.009,-0.86313 1.15797,1.24293 1.15797,1.24294 0.65338,2.42647 c 0.35936,1.33456 0.92628,4.60285 1.25982,7.26288 l 0.60643,4.8364 -0.63681,5.25732 -0.63682,5.25733 -1.21048,3.69169 -1.21049,3.69169 -1.83642,2.77249 c -1.01002,1.52486 -2.41424,3.08151 -3.12048,3.45921 L 195.9,167.60181 Z m -88.6134,-3.71592 -1.73586,-2.73716 -0.80093,-3.11284 L 105.9,152.7 l 0.009,-10.5 0.009,-10.5 1.08824,-3.6 c 0.59853,-1.98 1.75046,-4.74253 2.55986,-6.13896 l 1.47162,-2.53897 1.21871,-0.65223 c 0.67029,-0.35873 2.02137,-0.67506 3.00241,-0.70295 l 1.7837,-0.0507 1.77703,1.70251 1.77704,1.70251 1.25655,3.3394 c 0.6911,1.83667 1.65853,5.45525 2.14984,8.04129 l 0.89328,4.7019 -0.3581,0.3581 -0.35811,0.35811 -0.53588,-0.56 c -0.29473,-0.308 -0.95925,-2.83453 -1.47671,-5.61451 l -0.94084,-5.05451 -1.36328,-2.71431 -1.36329,-2.7143 -1.58114,-1.14693 -1.58115,-1.14692 -1.68069,0.81574 -1.68069,0.81574 -1.42342,2.86425 -1.42341,2.86425 -0.92482,4.33575 -0.92483,4.33575 -0.004,7.8 -0.004,7.8 0.97716,4.14239 c 0.53743,2.27832 1.49622,5.31582 2.13062,6.75 1.48991,3.36817 1.04482,3.31765 -1.14133,-0.12955 z M 188.4,164.0761 c 0,-0.17815 0.51791,-1.33909 1.15091,-2.57988 0.633,-1.24079 1.59874,-4.40253 2.14609,-7.0261 L 192.69217,149.7 v -6.9 -6.9 l -0.99358,-4.8 -0.99359,-4.8 -1.3025,-2.34685 c -0.71637,-1.29077 -1.99634,-2.85965 -2.84436,-3.48641 l -1.54185,-1.13956 -1.55105,0.7067 -1.55104,0.70671 -1.50118,2.7797 -1.50117,2.77971 -1.20401,5.59808 c -1.23271,5.73154 -1.58726,6.6225 -2.33702,5.87274 l -0.42918,-0.42918 1.05998,-5.22082 1.05998,-5.22082 1.74683,-3.76956 1.74683,-3.76956 1.93027,-0.81161 1.93026,-0.81162 1.6768,0.58453 1.6768,0.58454 1.78955,2.03818 1.78955,2.03819 0.91152,3.06944 c 0.50134,1.68819 1.22342,5.40449 1.60462,8.25845 l 0.69308,5.18902 -0.33996,6.9 -0.33997,6.9 -0.98798,3.23705 c -1.09614,3.5914 -4.4898,9.28986 -4.4898,7.53905 z m -76.72173,-1.81288 c -1.39954,-1.77921 -2.15555,-4.12007 -3.1453,-9.73886 l -0.66509,-3.77565 0.27715,-8.52435 0.27715,-8.52436 1.28251,-3.95121 1.2825,-3.95121 1.16341,-1.05287 1.1634,-1.05287 1.25306,0.39771 1.25306,0.3977 1.10139,2.20638 c 1.33662,2.67762 2.25761,6.40074 2.77213,11.20637 l 0.38543,3.6 -0.80322,-1.5 -0.80321,-1.5 -2.05984,-0.19723 -2.05983,-0.19722 -0.77649,1.0619 -0.77648,1.06191 v 4.55181 4.55182 l 0.93402,1.33351 0.93402,1.3335 1.31598,-0.009 c 1.59311,-0.0111 2.3879,-0.50834 3.34214,-2.09081 l 0.7236,-1.2 -0.37424,3.3 c -0.52675,4.64477 -1.76338,9.25373 -3.09754,11.54465 l -1.13874,1.95535 -1.25039,0.18266 -1.25038,0.18266 z m 72.29147,0.41385 -1.06404,-1.17576 -1.11554,-3.58424 c -0.61355,-1.97134 -1.28013,-5.30163 -1.4813,-7.40066 l -0.36575,-3.81641 0.96605,1.68521 0.96606,1.68521 1.89871,-0.18521 1.89871,-0.18521 0.75483,-1.5 0.75484,-1.5 0.009,-3.71094 0.009,-3.71094 -0.58515,-1.53906 L 186.0297,136.2 H 183.66485 181.3 l -0.65532,1.65 -0.65533,1.65 0.30909,-3.87407 c 0.17,-2.13073 0.73616,-5.39609 1.25812,-7.25635 l 0.94902,-3.38228 1.3321,-1.67062 1.3321,-1.67061 1.37561,0.4366 1.3756,0.4366 1.39149,3.09036 1.39149,3.09037 0.7208,4.59091 0.7208,4.59091 -0.30133,7.70909 -0.30133,7.70909 -0.98801,3.6 c -0.54341,1.98 -1.48015,4.275 -2.08165,5.1 l -1.09364,1.5 -1.17291,0.17641 -1.17291,0.17641 z M 161.22356,148.65 l -1.00579,-0.75 1.54715,-3.3 c 0.85094,-1.815 1.90764,-3.975 2.34822,-4.8 l 0.80107,-1.5 1.3121,-0.2008 1.31209,-0.2008 0.63161,0.63161 0.6316,0.6316 -1.10249,3.64131 -1.1025,3.64131 -1.36966,1.47788 c -1.53163,1.65265 -2.5218,1.83268 -4.0034,0.72789 z m -6.4301,-0.93464 -1.33948,-1.08465 0.41283,-1.87958 0.41282,-1.87958 2.04081,-1.20411 2.0408,-1.2041 0.39603,-1.5779 0.39602,-1.5779 -0.76347,-1.42657 -0.76348,-1.42657 1.00066,-1.5272 1.00066,-1.5272 h 1.16506 1.16506 l 0.66985,1.25163 0.66985,1.25163 -1.01856,4.59837 c -0.56021,2.5291 -1.42461,5.61875 -1.92089,6.86587 l -0.90233,2.26751 -1.08841,0.58249 c -1.51779,0.8123 -2.04141,0.73873 -3.57383,-0.50214 z m -36.95227,-2.15226 c -0.17663,-0.4603 -0.23566,-1.8778 -0.13117,-3.15 L 117.9,140.1 l 9.3,-0.0341 9.3,-0.0341 -8.35135,0.33412 -8.35136,0.33412 -0.24274,0.73228 -0.24274,0.73228 7.9941,0.1867 7.99409,0.18669 -7.99399,0.13103 -7.994,0.13102 0.20103,1.05 0.20103,1.05 6.14297,0.17099 6.14296,0.17099 v 0.57901 0.57901 h -6.91883 -6.91883 z M 167.4,145.8 v -0.6 h 6.23581 6.2358 l 0.3642,-0.94907 c 0.2003,-0.52199 0.36419,-1.06199 0.36419,-1.2 0,-0.13801 -2.7675,-0.30744 -6.15,-0.3765 l -6.15,-0.12558 5.85,-0.19615 5.85,-0.19615 v -0.85576 -0.85576 l -5.55,-0.20889 -5.55,-0.2089 6.6,0.0364 6.6,0.0364 0.19685,1.7225 c 0.10827,0.94737 0.0356,2.36487 -0.16143,3.15 L 181.77714,146.4 H 174.58857 167.4 Z"
         id="path60" />
      <path
         style="fill:#2d1400"
         d="M 0,150 V 0 H 150 300 V 150 300 H 150 0 Z m 140.03129,34.65 c 0.21156,-1.4025 0.84254,-4.53765 1.40218,-6.96699 l 1.01753,-4.41699 0.6245,-0.1829 c 0.34347,-0.10059 1.41996,-0.35888 2.39219,-0.57398 l 1.76769,-0.39108 -2.34096,-1.31312 -2.34096,-1.31313 -2.60894,-3.43248 c -1.43493,-1.88787 -4.07945,-5.77473 -5.87674,-8.63747 L 130.8,152.21689 v -1.8627 -1.8627 l 2.67345,-3.25912 c 1.4704,-1.79252 3.50844,-4.95523 4.52898,-7.02825 1.02055,-2.07302 2.1144,-3.92911 2.43079,-4.12465 l 0.57526,-0.35553 0.35995,0.93803 c 0.19798,0.51592 0.60107,0.93803 0.89576,0.93803 H 142.8 v -1.20709 -1.20709 l 2.55,0.39733 2.55,0.39734 1.77228,1.47391 1.77228,1.47392 3.17772,-0.26353 3.17772,-0.26352 v 1.15864 1.15864 l -1.80854,1.68943 -1.80854,1.68943 -2.37843,0.40183 -2.37842,0.40183 -1.80558,-0.39657 -1.80557,-0.39657 -1.50081,-1.90396 -1.5008,-1.90397 -0.003,1.5 c -0.002,0.825 0.40038,2.27336 0.89335,3.21858 1.15498,2.21459 1.26226,1.97033 -1.4798,3.36923 L 139.84781,147.6 h -1.7885 -1.78849 l -0.37082,0.6 -0.37082,0.6 h 1.65009 1.65009 l -1.16468,0.9092 -1.16468,0.90921 1.8,-0.39905 1.8,-0.39904 -1.05,1.18708 c -0.5775,0.6529 -1.05,1.37783 -1.05,1.61095 v 0.42387 l 1.1002,-0.58881 c 0.6051,-0.32384 2.06908,-1.58632 3.25327,-2.8055 l 2.15308,-2.2167 2.67726,1.56898 2.67727,1.56898 2.85768,3.16542 2.85768,3.16541 -0.4234,-2.29261 c -0.23287,-1.26093 -0.55664,-2.63981 -0.71948,-3.06416 l -0.29607,-0.77155 2.815,-0.38584 C 158.50074,150.17363 160.76274,150 161.97915,150 h 2.21167 L 165.6,148.5 c 2.6681,-2.84007 4.0009,-1.60519 1.67009,1.54739 l -1.3299,1.79879 0.7299,1.16877 c 0.97997,1.56917 0.91911,3.93013 -0.19828,7.69281 l -0.92819,3.12556 -2.44451,1.77079 c -1.34448,0.97394 -3.3568,2.10068 -4.47181,2.50388 -1.11502,0.40319 -2.0273,0.94884 -2.0273,1.21254 V 169.8 h 2.4 2.4 v 0.85714 c 0,1.11287 -1.12029,2.20265 -4.39229,4.27268 l -2.65892,1.68215 -0.37439,3.58203 c -0.20592,1.97012 -0.3744,4.40642 -0.3744,5.41401 V 187.44 l 0.65707,-0.65707 c 0.3614,-0.3614 1.2851,-1.9679 2.05268,-3.57 l 1.3956,-2.91293 0.0473,3.45 0.0473,3.45 h 3.69021 3.6902 l -0.36724,-6.45 -0.36724,-6.45 0.51371,-3.6 c 0.28254,-1.98 1.20888,-5.50672 2.05853,-7.83715 l 1.54482,-4.23715 0.35003,-3.56285 c 0.19252,-1.95957 0.48308,-4.44035 0.64569,-5.51285 l 0.29567,-1.95 H 171.92719 174 l 0.0104,1.65 c 0.006,0.9075 0.40723,3.54 0.89222,5.85 l 0.8818,4.2 2.10465,4.27736 2.10466,4.27736 2.36733,2.13873 2.36732,2.13874 2.03881,0.38248 2.0388,0.38249 2.047,-0.95056 c 1.12584,-0.52281 3.62105,-1.91928 5.54489,-3.10328 l 3.4979,-2.15271 1.77363,-2.79531 1.77362,-2.7953 1.18473,-3.83345 c 0.6516,-2.10839 1.35142,-4.87589 1.55516,-6.15 L 206.55337,148.8 h 1.94985 1.94985 l 0.76345,-0.91991 0.76346,-0.9199 0.28568,-2.97315 0.28568,-2.97314 -0.75162,-1.81458 -0.75163,-1.81458 -1.3983,-0.35095 c -0.76906,-0.19303 -1.74738,-0.23388 -2.17404,-0.0908 l -0.77575,0.26017 -1.04882,-4.84308 -1.04881,-4.84308 -1.4918,-3.04911 -1.49179,-3.04912 -2.20939,-2.20939 c -1.21516,-1.21516 -2.50189,-2.2143 -2.85939,-2.22031 -0.3575,-0.006 -1.83813,-0.816 -3.29029,-1.8 L 190.61942,113.4 h -2.3395 -2.33951 l -1.69874,0.87845 c -2.17143,1.12289 -4.51201,3.91089 -6.38307,7.60324 l -1.47492,2.91062 -1.18764,4.95385 c -0.6532,2.72461 -1.18952,5.67923 -1.19184,6.56582 l -0.004,1.61199 -1.95,0.18801 -1.95,0.18802 -1.05731,-1.30393 -1.05731,-1.30394 -1.79269,-0.39374 -1.79269,-0.39374 v -1.19848 -1.19848 l -1.82896,-1.82896 -1.82897,-1.82896 -2.32197,0.31144 -2.32197,0.31144 -0.34256,-1.36487 -0.34257,-1.36488 -2.06542,-0.98011 -2.06542,-0.9801 -2.59108,0.0888 -2.59108,0.0888 -2.48845,-0.73751 -2.48844,-0.73752 -2.23239,1.05934 -2.23239,1.05934 -1.12692,1.84802 -1.12692,1.84802 -0.002,4.30076 -0.002,4.30077 -4.20135,0.19923 -4.20135,0.19924 0.001,-1.07529 c 7.4e-4,-0.59142 -0.42215,-3.15642 -0.93976,-5.7 l -0.9411,-4.62471 -1.48847,-3.3 c -0.81866,-1.815 -2.1877,-4.31368 -3.04231,-5.55262 l -1.55384,-2.25261 -1.9374,-1.19739 -1.93741,-1.19738 h -2.69827 -2.69826 l -1.43091,1.11753 c -0.78701,0.61464 -2.56278,1.69215 -3.94616,2.39446 l -2.51524,1.27693 -1.510873,1.98086 c -2.270352,2.97658 -4.383362,8.02953 -5.323444,12.73022 l -0.83995,4.2 -1.559662,-0.18796 -1.559662,-0.18797 -1.237965,1.23797 L 87.6,139.2 v 3.4665 3.46649 l 0.934022,1.33351 0.934023,1.3335 h 1.988679 1.988679 l 0.402391,3.03337 c 0.221315,1.66835 1.114252,4.95387 1.984305,7.30114 l 1.581914,4.26777 2.470805,2.44886 c 2.785292,2.76056 7.194202,5.57853 10.144832,6.4841 l 1.97658,0.60663 2.75224,-1.21745 2.75224,-1.21745 2.12062,-2.90348 2.12063,-2.90349 1.45661,-3.90247 1.45661,-3.90247 0.74973,-4.64753 0.74973,-4.64753 h 1.78766 1.78766 l -0.31761,1.21452 -0.3176,1.21452 0.572,2.07163 0.572,2.07162 4.821,7.29649 4.82099,7.29648 -0.002,3.66737 c -0.001,2.01705 -0.28643,5.55737 -0.63348,7.86737 -0.34706,2.31 -0.63637,4.8075 -0.6429,5.55 L 138.6,187.2 h 0.52332 0.52331 z m -32.75876,-15.14904 -2.20603,-1.49903 -2.12713,-4.35097 C 101.76945,161.25793 100.34503,157.545 99.773991,155.4 l -1.038246,-3.9 0.0126,-8.4 0.0126,-8.4 1.044995,-4.2 c 1.23592,-4.96739 3.55955,-10.26016 5.33331,-12.14823 L 106.40918,117 h 2.29541 c 2.80554,0 2.83763,-0.36749 -0.3879,4.44261 l -2.68331,4.00152 -0.98172,3.12793 -0.98172,3.12794 -0.3115,8.23811 -0.31151,8.23811 -0.52346,-0.32352 -0.52347,-0.32352 -0.009,0.78541 -0.009,0.78541 -0.58162,-0.9 -0.58162,-0.9 -0.0184,1.2 -0.0184,1.2 -0.58162,-0.9 -0.581625,-0.9 -3.19e-4,1.8 c -6.44e-4,3.63537 3.728834,15.95311 4.574214,15.10773 0.12583,-0.12583 1.40352,0.94595 2.83931,2.38174 l 2.61053,2.61053 h 1.91839 c 1.05511,0 2.50212,-0.3124 3.21556,-0.69423 l 1.29717,-0.69422 -1.18661,-0.4636 -1.18662,-0.46361 1.33,-0.0422 1.33,-0.0422 2.12,-2.12 c 1.166,-1.166 2.12,-2.426 2.12,-2.8 v -0.68 l 0.36844,0.36844 0.36844,0.36844 -1.28154,2.07358 c -0.70485,1.14047 -2.35643,3.04467 -3.67017,4.23156 L 113.99654,171 h -2.25899 -2.25899 z m 76.8662,0.12893 -2.03873,-1.37012 -1.95,-3.25334 c -1.0725,-1.78934 -1.93807,-3.53529 -1.92348,-3.87989 0.0146,-0.3446 0.54854,0.36161 1.18657,1.56935 1.29118,2.44409 3.83558,4.69924 5.31783,4.7133 l 0.96908,0.009 -0.83106,0.52632 -0.83106,0.52632 1.24162,0.66449 c 2.79224,1.49436 5.66728,0.40106 9.32234,-3.54503 l 2.30184,-2.48512 1.40067,-4.11815 c 0.77037,-2.26498 1.57567,-5.68619 1.78954,-7.60268 l 0.38887,-3.48453 -0.63219,0.9 -0.63219,0.9 -0.009,-1.01555 -0.009,-1.01555 -1.2,0.2311 -1.2,0.2311 -0.005,-5.51555 c -0.002,-3.03336 -0.28658,-7.27036 -0.6314,-9.41536 l -0.62696,-3.9 -1.42663,-3.13102 c -0.78464,-1.72206 -2.25547,-4.3357 -3.26851,-5.8081 C 188.55924,117.04317 188.56084,117 190.9665,117 h 1.96649 l 1.23336,0.86387 1.23335,0.86388 1.92852,3.91738 1.92852,3.91739 0.84056,4.06874 c 0.4623,2.23781 1.01918,6.09374 1.23749,8.56874 l 0.39695,4.5 -0.67343,5.51126 c -0.37038,3.03119 -1.21267,7.25714 -1.87175,9.391 l -1.19833,3.87975 -1.94412,2.89302 -1.94411,2.89303 -2.03873,1.36597 L 190.02254,171 H 188.1 186.17746 Z M 109.791,162.58737 c -0.70988,-0.99695 -1.84517,-3.35945 -2.52285,-5.25 L 106.036,153.9 l -0.29323,-7.52803 -0.29324,-7.52804 0.65228,-4.77196 c 0.35874,-2.62458 1.0959,-6.24953 1.63811,-8.05544 l 0.98584,-3.28347 2.26653,-2.26653 2.26653,-2.26653 h 2.066 2.066 l 1.23688,1.35 c 2.60529,2.84356 5.09552,9.77503 5.65843,15.75 l 0.16958,1.8 -0.54539,0.3 -0.54539,0.3 -1.04765,-5.32275 -1.04765,-5.32275 -1.5274,-3.12189 -1.5274,-3.1219 -1.55459,-0.83199 -1.55459,-0.83199 -1.5938,0.89458 -1.5938,0.89457 -1.34468,2.38206 -1.34468,2.38206 -1.04885,4.5 -1.04885,4.5 0.0367,8.4 0.0367,8.4 0.99216,4.06279 c 0.54568,2.23454 1.54019,5.13704 2.21002,6.45 1.44787,2.83807 1.17656,3.09133 -0.61553,0.57458 z m 1.94016,-0.2569 -1.15593,-1.46953 -1.13058,-3.78047 -1.13057,-3.78047 v -10.5 -10.5 l 1.09575,-3.65635 1.09575,-3.65635 1.3321,-1.67062 1.3321,-1.67061 1.18529,0.37619 1.18529,0.3762 0.97479,1.65077 c 1.14721,1.94274 2.62345,7.61263 3.08554,11.85077 l 0.32709,3 -0.6614,-1.36304 -0.6614,-1.36304 -1.3466,-0.33798 -1.34661,-0.33798 -1.2488,0.66834 -1.2488,0.66834 -0.45709,1.63268 c -0.25139,0.89797 -0.41419,3.33922 -0.36177,5.425 l 0.0953,3.79232 1.04768,1.15768 1.04769,1.15768 h 1.68784 1.68785 l 0.9252,-1.65 0.9252,-1.65 -0.30604,2.25 c -0.76017,5.58873 -1.01952,6.91975 -1.85198,9.50461 -1.60844,4.99433 -4.03491,6.53031 -6.1229,3.87586 z m 72.64133,0.74848 c -1.99417,-2.49533 -4.39294,-10.78601 -4.36364,-15.08173 l 0.009,-1.29722 0.75484,1.5 0.75483,1.5 1.87868,0.18372 1.87868,0.18371 0.95764,-1.36722 0.95764,-1.36722 V 142.6665 138 l -1.2,-1.2 -1.2,-1.2 h -1.08532 c -1.28382,0 -2.84709,1.13751 -3.29829,2.4 l -0.32165,0.9 -0.0474,-1.37529 c -0.0821,-2.38243 1.80298,-10.47121 2.97616,-12.77083 1.18512,-2.32302 2.39961,-3.13758 3.8489,-2.58144 l 0.87243,0.33479 1.24747,2.57692 1.24746,2.57692 0.9532,5.01946 0.9532,5.01947 -0.33801,7.8 -0.33802,7.8 -0.88153,3.15288 c -0.48485,1.73409 -1.3918,4.02909 -2.01546,5.1 l -1.13393,1.94712 -1.22213,0.17895 -1.22212,0.17896 z m 5.29058,-1.66781 c 0.67608,-1.39933 1.63876,-4.47178 2.13928,-6.82768 L 192.7124,150.3 v -7.5 -7.5 l -0.92095,-4.33575 -0.92095,-4.33575 -1.42789,-2.86425 -1.42789,-2.86425 -1.60736,-0.9 -1.60736,-0.9 -1.61657,0.90425 -1.61658,0.90424 -1.41253,2.74483 -1.41254,2.74483 -0.95996,5.05092 -0.95995,5.05093 -0.86914,0.9 -0.86913,0.9 0.42563,-3.3 c 0.23409,-1.815 1.084,-5.39872 1.88867,-7.96383 l 1.46304,-4.66383 1.83169,-2.08617 1.83168,-2.08617 h 1.95693 1.95693 l 1.59765,1.25672 c 2.06756,1.62634 3.74547,4.96326 4.86459,9.67439 l 0.89529,3.76889 0.37074,6.9 0.37075,6.9 -0.66764,4.68655 -0.66764,4.68655 -1.25644,2.92067 c -0.69104,1.60637 -1.76385,3.37988 -2.38403,3.94113 l -1.1276,1.02046 z M 94.585481,146.69382 94.187566,142.5 l 0.598537,-4.8 c 1.056112,-8.46955 1.934922,-10.70088 4.280952,-10.86951 l 0.967055,-0.0695 -0.878832,2.76951 -0.878832,2.76951 -0.322449,7.77708 -0.322449,7.77709 -0.815774,0.81577 L 96,149.48571 95.95783,148.99286 c -0.02319,-0.27107 -0.25193,0.0444 -0.508302,0.70096 l -0.466131,1.19383 z M 204.71824,149.4 204.58162,147.9 204,148.8 l -0.58162,0.9 -0.009,-1.08541 -0.009,-1.08541 -0.51449,0.31797 -0.51449,0.31797 -0.35342,-7.63256 -0.35341,-7.63256 -0.87837,-3.15221 -0.87837,-3.1522 0.49503,0.30594 0.49503,0.30595 0.23665,-0.70997 0.23666,-0.70997 1.27094,2.05642 1.27094,2.05642 0.67219,3.89981 0.6722,3.89981 -0.20112,6.6 c -0.11061,3.63 -0.26259,5.925 -0.33773,5.1 z m -49.10684,-1.19599 c -0.70874,-0.28595 -1.47043,-0.81412 -1.69266,-1.17369 l -0.40406,-0.65378 0.66543,-1.93827 0.66543,-1.93827 1.92723,-1.20811 1.92723,-1.2081 0.19335,-1.67818 0.19336,-1.67818 -0.69293,-0.83492 -0.69292,-0.83492 0.3902,-1.22943 c 0.21462,-0.67619 0.93302,-1.51994 1.59646,-1.875 l 1.20625,-0.64556 0.85311,0.32737 0.85312,0.32737 v 2.5305 c 0,4.67306 -2.76587,13.70716 -4.19658,13.70716 h -0.56576 l 0.34342,-0.89494 0.34342,-0.89494 -0.94683,-0.36334 -0.94683,-0.36333 -0.95828,0.95827 -0.95827,0.95828 h 0.90744 c 0.4991,0 1.07432,0.27 1.27827,0.6 0.4283,0.69301 0.41911,0.69304 -1.2886,0.004 z m 4.97816,0.14091 c -0.15469,-0.2503 0.78268,-2.6803 2.08305,-5.4 L 165.03692,138 h 1.50037 1.50037 l 0.3395,0.88471 0.33949,0.88471 -1.434,3.76529 -1.434,3.76529 -1.92433,0.18802 L 162,147.67603 v 0.56199 c 0,0.67321 -1.01298,0.74999 -1.41044,0.1069 z m -42.72498,-3.37242 c -0.19705,-0.78513 -0.2697,-2.20263 -0.16143,-3.15 L 117.9,140.1 l 9.3,-0.0341 9.3,-0.0341 -8.35135,0.33412 -8.35136,0.33412 -0.24256,0.73175 -0.24256,0.73174 7.69391,0.18786 7.69392,0.18785 -7.65,0.1304 -7.65,0.1304 v 1.2 1.2 h 6.33541 6.33541 l -0.37082,0.6 -0.37082,0.6 h -6.55316 -6.55316 z M 167.4,145.76981 v -0.52921 l 6.44289,-0.1703 6.44288,-0.1703 0.19698,-1.02857 0.19698,-1.02857 -6.18986,-0.19489 -6.18987,-0.19489 6.2,-0.12654 6.2,-0.12654 -0.24778,-0.75 -0.24779,-0.75 -5.65221,-0.33515 -5.65222,-0.33515 6.43857,-0.11485 6.43857,-0.11485 0.39762,1.58426 0.39763,1.58426 -0.55142,1.56574 -0.55142,1.56574 -7.03478,0.0995 -7.03477,0.0995 z m -31.8,-13.7944 V 129.48 l 2.04,-2.04 2.04,-2.04 1.41,0.0422 1.41,0.0422 -1.2,0.51566 -1.2,0.51566 0.78541,0.0422 0.78541,0.0422 -0.37082,0.6 -0.37082,0.6 h 0.80191 c 0.44104,0 1.40245,-0.42064 2.13646,-0.93476 l 1.33456,-0.93476 0.59894,0.37017 0.59895,0.37017 v 2.94269 2.94269 l -2.71827,-0.0546 -2.71827,-0.0546 -1.18173,1.06945 -1.18173,1.06946 v -1.51953 -1.51953 l -0.9,-0.74693 -0.9,-0.74693 v 1.83805 1.83806 l -0.6,0.37082 -0.6,0.37082 z"
         id="path59" />
      <path
         style="fill:#030000"
         d="M 0,150 V 0 H 150 300 V 150 300 H 150 0 Z m 140.1044,34.95 c 0.40914,-2.56583 1.29,-6.62434 2.14065,-9.86297 l 0.58126,-2.21296 1.89064,-0.18704 1.89064,-0.18703 0.17246,-0.6 0.17247,-0.6 -2.52626,-1.2 -2.52626,-1.2 -5.27357,-7.86277 -5.27356,-7.86277 -0.33684,-2.07566 -0.33683,-2.07565 3.08263,-4.07272 c 1.69544,-2.23999 3.9025,-5.69688 4.90458,-7.68199 l 1.82196,-3.60928 0.98283,1.40319 0.98283,1.40319 0.32299,-1.36818 c 0.17764,-0.7525 0.52548,-1.35225 0.77298,-1.33277 0.2475,0.0195 1.21869,0.0354 2.15819,0.0354 h 1.7082 l 1.40245,1.21634 c 1.73354,1.50349 3.55635,1.98789 6.28279,1.66959 L 157.2,136.44096 v 1.33666 1.33667 l -0.99311,0.9931 c -1.46751,1.46752 -3.52106,2.09261 -6.8746,2.09261 h -2.98959 l -1.47135,-1.58761 C 144.06211,139.7392 143.4,138.77826 143.4,138.47698 v -0.5478 l -0.6022,0.37218 -0.6022,0.37218 0.34888,1.61323 c 0.19188,0.88728 0.64776,2.2287 1.01306,2.98094 l 0.66419,1.3677 -0.86087,0.8502 c -0.47347,0.4676 -2.21086,1.17149 -3.86086,1.56418 -1.65,0.39269 -3.405,0.85455 -3.9,1.02635 l -0.9,0.31237 1.8,0.43476 c 0.99,0.23911 1.4625,0.4667 1.05,0.50574 -0.4125,0.0391 -0.75,0.37026 -0.75,0.73603 v 0.66505 l 1.65,-0.41388 1.65,-0.41388 -1.45459,1.54884 C 137.84539,152.30303 137.40852,153 137.67459,153 c 1.00875,0 4.52031,-2.5304 5.63486,-4.06043 l 1.16183,-1.59493 3.39572,2.25463 3.39572,2.25463 1.91864,2.73236 1.91864,2.73236 0.19637,-1.29468 c 0.108,-0.71207 -0.0732,-2.06804 -0.40274,-3.01325 l -0.5991,-1.71858 0.90309,-0.34655 c 0.49669,-0.1906 2.82385,-0.52506 5.17146,-0.74324 l 4.26837,-0.39671 1.30008,-1.4028 C 166.65257,147.63126 167.53567,147 167.89997,147 h 0.66237 l -0.3833,1.05 c -0.21082,0.5775 -0.88148,1.69917 -1.49036,2.4926 l -1.10706,1.4426 0.90919,1.00464 c 1.15355,1.27466 1.14423,2.59136 -0.0471,6.65126 l -0.95626,3.2589 -1.29374,1.40509 c -0.71155,0.7728 -1.83373,1.68959 -2.49373,2.03731 l -1.2,0.63221 1.14632,-1.29098 1.14632,-1.29099 L 162.4,164 l -0.39264,-0.39264 -1.23711,1.11956 -1.2371,1.11956 -2.21657,0.13111 c -1.21912,0.0721 -4.18404,0.49753 -6.58872,0.94538 l -4.37213,0.81427 -0.12787,0.58138 L 146.1,168.9 l 3.79973,0.17992 3.79974,0.17992 2.05026,-1.20968 c 2.22819,-1.31467 2.6192,-1.07331 1.05728,0.6526 l -0.993,1.09724 1.743,0.10697 c 0.95864,0.0588 2.22665,0.10369 2.81778,0.0997 l 1.0748,-0.007 -0.17954,0.93226 -0.17953,0.93225 -3.74526,2.61256 -3.74526,2.61255 v 5.0555 5.05549 h 0.54057 c 0.29731,0 1.03981,-1.21877 1.65,-2.70837 l 1.10943,-2.70837 0.3,2.55837 0.3,2.55837 3.75,0.17863 3.75,0.17863 v -9.30642 -9.30642 l 1.27296,-3.17221 c 1.94406,-4.84458 2.91123,-8.86512 2.92811,-12.17221 0.008,-1.65 0.17812,-3.6075 0.3771,-4.35 l 0.36179,-1.35 h 1.63626 1.63625 l 1.00763,5.12832 c 0.5542,2.82057 1.70707,6.8755 2.56195,9.01095 l 1.55432,3.88263 2.67828,2.97888 2.67828,2.97889 2.29918,0.68885 2.29918,0.68885 1.40435,-0.35812 c 1.47606,-0.37641 6.86271,-3.60855 9.63706,-5.78249 l 1.63269,-1.27937 2.10792,-4.31869 2.10792,-4.3187 0.74622,-4.05 0.74621,-4.05 h 1.92915 1.92915 l 0.93402,-1.3335 0.93402,-1.33351 V 142.8 139.46701 l -0.93402,-1.33351 -0.93402,-1.3335 h -1.96227 -1.96227 l -0.72383,-3.9284 -0.72384,-3.92839 -1.49956,-3.39079 c -0.82476,-1.86493 -2.18135,-4.28464 -3.01464,-5.37714 l -1.51507,-1.98636 -2.51524,-1.27506 c -1.38338,-0.70128 -2.65024,-1.46837 -2.81524,-1.70464 -0.165,-0.23627 -0.88975,-0.74 -1.61056,-1.1194 L 190.87889,113.4 h -3.05285 -3.05285 l -2.68664,2.47645 -2.68663,2.47646 -1.77997,3.67354 -1.77997,3.67355 -0.8893,3.9 c -0.48912,2.145 -1.05034,4.9125 -1.24718,6.15 l -0.35788,2.25 h -1.66822 -1.66822 L 168.6,136.5 167.19082,135 H 165.79541 164.4 v -1.52727 -1.52728 L 162.92727,130.47273 161.45455,129 h -2.68684 -2.68684 l -0.38594,-1.21598 c -0.21227,-0.6688 -1.04486,-1.64773 -1.85019,-2.1754 l -1.46426,-0.95942 -2.90566,0.2792 -2.90566,0.27919 -1.09926,-0.80379 -1.09926,-0.8038 -2.13532,0.002 -2.13532,0.002 -1.9174,1.16911 c -1.05457,0.64301 -2.38374,1.88083 -2.95371,2.75072 l -1.03631,1.58161 0.11481,4.44703 L 134.4222,138 h -4.14197 -4.14196 l -0.42877,-3.45 c -0.23583,-1.8975 -1.06749,-5.475 -1.84814,-7.95 l -1.41937,-4.5 -1.75789,-2.77133 -1.75789,-2.77134 -2.06974,-1.57866 L 114.78673,113.4 H 111.6 108.41327 l -1.9666,1.5 c -1.08163,0.825 -2.25384,1.5 -2.60491,1.5 -0.35107,0 -1.76124,1.0125 -3.13373,2.25 l -2.495425,2.25 -1.692972,3.57404 -1.692972,3.57404 -0.973559,4.37596 -0.973559,4.37596 h -1.542527 -1.542527 l -1.097245,0.99299 -1.097244,0.993 v 4.06415 4.06415 l 0.942857,0.94285 0.942857,0.94286 h 1.696915 1.696914 l 0.973559,4.37596 0.973559,4.37596 1.692972,3.57404 1.692972,3.57404 2.495425,2.25 c 1.37249,1.2375 2.78266,2.25 3.13373,2.25 0.35107,0 1.61177,0.7425 2.80157,1.65 l 2.16326,1.65 h 2.84101 2.84101 l 2.3057,-1.84918 2.30569,-1.84918 1.83843,-3.03757 c 2.24625,-3.7114 3.7066,-8.06678 4.63182,-13.81407 l 0.70028,-4.35 h 1.58153 1.58153 l -0.28462,1.48891 c -0.47483,2.48393 0.25167,4.10786 5.16351,11.54184 l 4.71668,7.13862 0.41792,2.78688 0.41792,2.78688 -0.63811,4.97843 c -0.35095,2.73814 -0.78281,5.85594 -0.95968,6.92844 l -0.32159,1.95 h 0.9 0.9 z m -27.17044,-21.58642 c -1.06671,-0.38192 -2.81454,-4.0424 -3.8025,-7.96358 L 108.3,152.1 v -9.3 -9.3 l 0.83146,-3.3 c 1.01349,-4.02248 2.71996,-7.53785 3.8741,-7.98074 l 0.85668,-0.32873 1.25152,0.8766 1.25153,0.8766 1.14576,3.72814 c 0.63017,2.05047 1.32418,5.21313 1.54224,7.02813 l 0.39647,3.3 -0.65469,-1.05 -0.6547,-1.05 h -2.1008 -2.1008 l -0.86939,2.08073 -0.86938,2.08073 v 3.34906 3.34907 l 0.91541,1.77021 0.91541,1.7702 h 2.05477 2.05478 l 0.61157,-1.05 0.61157,-1.05 0.008,1.5 c 0.0359,6.88317 -3.68289,14.94978 -6.43738,13.96358 z m 71.33824,-0.69138 -1.1278,-1.1278 -0.95206,-2.9222 c -0.83243,-2.55499 -2.19123,-9.61551 -2.17896,-11.3222 0.002,-0.33 0.34404,0.075 0.75926,0.9 l 0.75495,1.5 2.15053,0.18111 2.15052,0.18111 0.82334,-1.98111 0.82335,-1.98111 v -3.3 -3.3 l -0.82335,-1.98111 -0.82334,-1.98111 -2.15052,0.18111 -2.15053,0.18111 -0.77189,1.5 -0.77189,1.5 0.35024,-2.7 c 0.68066,-5.24726 1.52524,-8.72861 2.71626,-11.19639 l 1.20483,-2.49638 1.02067,-0.39167 1.02067,-0.39167 1.33144,1.54788 1.33143,1.54789 0.89152,3.00209 c 0.49034,1.65114 1.18804,5.69672 1.55044,8.99017 l 0.65891,5.98808 -0.65891,5.98808 c -1.27171,11.55709 -4.04842,16.96481 -7.12911,13.88412 z m 5.53634,-1.1222 c 1.32744,-2.60946 2.70283,-9.00115 3.13092,-14.55 l 0.39346,-5.1 -0.68288,-5.7 -0.68287,-5.7 -1.23917,-3.77002 -1.23916,-3.77002 -1.49776,-1.77998 L 186.49333,119.4 H 184.8 183.10667 l -1.57555,1.87243 c -2.15993,2.56694 -3.22481,5.33447 -4.18782,10.88381 -0.45045,2.5957 -0.98197,4.88243 -1.18115,5.08161 -2.84833,2.84833 1.98867,-14.29525 4.90591,-17.38785 l 1.55645,-1.65 h 1.96774 1.96775 l 2.05775,2.05775 2.05774,2.05774 0.94212,2.89226 c 0.51817,1.59074 1.21914,4.64725 1.55772,6.79225 l 0.61561,3.9 0.005,7.62047 0.005,7.62046 -0.67463,3.17954 c -0.63639,2.99932 -3.18653,8.87953 -3.85089,8.87953 -0.16791,0 0.0724,-0.7425 0.53406,-1.65 z m -81.51024,-2.1 -1.43532,-3.15 -0.62696,-3.9 c -0.34482,-2.145 -0.6274,-6.195 -0.62795,-9 l -0.001,-5.1 0.87636,-5.81376 0.87635,-5.81375 1.28795,-2.73999 1.28794,-2.73999 1.7782,-1.49625 1.7782,-1.49626 h 1.81324 1.81324 l 1.65016,1.7665 1.65016,1.7665 1.53004,4.6835 c 0.84153,2.57593 1.72237,6.13553 1.95743,7.91023 l 0.42737,3.22673 -0.61064,-0.3774 -0.61065,-0.3774 -0.41748,-3.14933 C 122.46532,131.9172 121.74197,128.88 121.08749,126.9 l -1.18998,-3.6 -1.47929,-1.95 -1.47929,-1.95 h -1.70731 -1.70731 l -1.84545,2.10185 -1.84544,2.10184 -1.36671,4.34816 L 107.1,132.3 l 0.009,10.8 0.009,10.8 1.53545,4.35 c 1.80667,5.1184 1.65876,5.61882 -0.3547,1.2 z m 92.21994,-10.05 -0.13662,-2.1 -0.58162,0.9 -0.58162,0.9 -0.0184,-1.2 -0.0184,-1.2 -0.58162,0.9 -0.58162,0.9 -0.009,-0.78541 -0.009,-0.78541 -0.6,0.37082 -0.6,0.37082 v -5.92521 -5.92522 l -0.6373,-3.44747 c -0.35051,-1.8961 -1.16195,-4.71319 -1.8032,-6.26019 l -1.1659,-2.81273 0.88156,1.13509 c 0.48486,0.62429 1.00575,1.43429 1.15752,1.8 l 0.27596,0.66491 0.63649,-0.9 0.63649,-0.9 0.009,0.70396 c 0.005,0.38719 0.67576,1.49615 1.49046,2.46436 l 1.48127,1.76039 0.6411,4.13565 0.64111,4.13564 -0.19495,6.6 c -0.10722,3.63 -0.25642,5.655 -0.33156,4.5 z M 94.881709,143.9602 94.8,137.02039 l 0.648758,-3.56019 0.648758,-3.5602 1.084495,-1.73291 1.084495,-1.73291 0.400639,1.2623 0.400639,1.26231 -0.634065,2.2706 c -0.348736,1.24884 -0.783273,4.97061 -0.965637,8.27061 -0.182363,3.3 -0.473678,6.92632 -0.647366,8.05849 l -0.315797,2.05849 -0.497983,-0.80576 -0.497983,-0.80575 -0.272767,1.44726 c -0.150022,0.796 -0.309537,-1.67564 -0.354477,-5.49253 z m 3.813729,2.81165 -0.458309,-2.32815 0.383132,-4.53244 c 0.210722,-2.49285 0.676966,-6.21977 1.036096,-8.28205 l 0.652963,-3.7496 0.73847,0.28338 0.73847,0.28338 0.71145,-1.56147 0.71145,-1.56146 0.83446,0.83446 0.83446,0.83446 -0.87941,3.25382 -0.87942,3.25382 -0.10962,6.98579 -0.10963,6.9858 -0.45,-0.27121 -0.45,-0.2712 -0.009,0.78541 -0.009,0.78541 -0.58162,-0.9 -0.58162,-0.9 -0.009,0.78541 -0.009,0.78541 -0.54875,-0.33915 -0.548758,-0.33915 -0.274372,0.75374 -0.274372,0.75374 z m 62.318602,1.12051 -0.34829,-0.90764 0.65909,-0.79416 c 0.3625,-0.43679 1.07482,-1.97245 1.58293,-3.41257 0.5081,-1.44013 1.36356,-3.10432 1.90102,-3.6982 L 165.78599,138 h 1.107 H 168 v 1.47749 c 0,0.81262 -0.54769,2.94134 -1.2171,4.73049 l -1.2171,3.25299 -0.7329,-0.025 c -0.40309,-0.0137 -1.35633,0.0175 -2.11831,0.0695 l -1.38541,0.0945 0.37082,0.6 c 0.20395,0.33 0.21141,0.6 0.0166,0.6 -0.19483,0 -0.51097,-0.40844 -0.70254,-0.90764 z m 42.38596,0.3457 v -0.70888 l -0.6,0.37082 -0.6,0.37082 -0.0125,-6.18541 -0.0125,-6.18541 -0.81974,-3.9 -0.81974,-3.9 0.68224,-0.43881 0.68225,-0.4388 0.71445,0.95486 c 1.12033,1.49733 2.05503,6.58234 2.41417,13.13366 l 0.32952,6.01091 -0.97907,0.81256 -0.97907,0.81255 z m -49.47498,-1.19757 -0.36173,-0.5853 0.36826,-1.46728 0.36826,-1.46729 2.40709,-1.93438 2.40709,-1.93439 -0.26556,-1.87593 c -0.14607,-1.03175 -0.46259,-2.32754 -0.70339,-2.87953 l -0.43782,-1.00361 1.28328,-1.28328 1.28328,-1.28328 1.01311,0.19302 1.01311,0.19302 0.21164,1.49387 c 0.23379,1.65015 -0.70735,6.57181 -2.08284,10.89218 l -0.8909,2.79831 -1.61895,-0.85284 -1.61895,-0.85284 -1.00662,1.21743 -1.00662,1.21742 z M 138.6,133.24907 c 0,-0.63301 -0.16389,-1.57801 -0.36419,-2.1 L 137.87161,130.2 H 137.03581 136.2 v -0.79541 c 0,-0.94564 2.23497,-3.06058 3.83487,-3.62892 l 1.13486,-0.40314 -0.67966,0.81894 -0.67966,0.81894 0.3948,0.3948 c 0.62585,0.62585 2.50624,0.46026 3.77564,-0.3325 l 1.16458,-0.72728 0.39764,0.39764 c 0.21871,0.21871 0.53277,1.59641 0.69791,3.06155 l 0.30026,2.6639 -2.70049,-0.30439 -2.7005,-0.30438 -1.27012,1.27012 L 138.6,134.4 Z"
         id="path58" />
    </g>
  </g>
</svg>
